<?xml version="1.0" encoding="utf-8"?>
<!-- Generator: Adobe Illustrator 18.1.0, SVG Export Plug-In . SVG Version: 6.00 Build 0)  -->
<svg version="1.1" id="Layer_1" xmlns="http://www.w3.org/2000/svg" xmlns:xlink="http://www.w3.org/1999/xlink" x="0px" y="0px"
	 viewBox="0 0 841.9 665.5" enable-background="new 0 0 841.9 665.5" xml:space="preserve">
<g>
	<polygon fill="#804465" points="809.3,126.2 809.3,37.3 661.7,37.3 661.7,126.2 588.7,126.2 588.7,13 447.6,13 447.6,126.2 
		0,126.2 0,587 841.9,587 841.9,126.2 	"/>
	<rect x="0" y="628.2" fill="#804465" width="841.9" height="37.3"/>
	<path fill="#C1D8DB" d="M439,0v142.9h158.3V0H439z M560.2,112h-89.5V31.3h89.5V112z"/>
	<path fill="#FFFFFF" d="M516.3,164.8c-106.9,0-193.6,86.7-193.6,193.6c0,106.9,86.7,193.6,193.6,193.6s193.6-86.7,193.6-193.6
		C709.9,251.5,623.2,164.8,516.3,164.8z M514.4,497.7c-77.9,0-141.1-63.2-141.1-141.1c0-77.9,63.2-141.1,141.1-141.1
		c77.9,0,141.1,63.2,141.1,141.1C655.5,434.5,592.3,497.7,514.4,497.7z"/>
	<g>
		<polygon fill="#C1D8DB" points="458.4,62 199.5,62 199.5,14.2 54.1,14.2 54.1,62 0,62 0,127.4 458.4,127.4 		"/>
		<rect x="584.3" y="62" fill="#C1D8DB" width="257.6" height="65.5"/>
	</g>
	<g>
		<path fill="none" stroke="#FFFFFF" stroke-width="21.5863" stroke-linecap="round" stroke-miterlimit="10" d="M518.1,252.1
			c-0.6,0-1.2,0-1.8,0c-58.8,0-106.4,47.7-106.4,106.4c0,1.4,0.1,2.8,0.1,4.2"/>
		<path fill="none" stroke="#FFFFFF" stroke-width="21.5863" stroke-linecap="round" stroke-miterlimit="10" d="M421.2,406.3
			c12.6,25,34.8,44.4,61.7,53.3"/>
	</g>
</g>
</svg>
