<?xml version="1.0" encoding="utf-8"?>
<!-- Generator: Adobe Illustrator 18.1.0, SVG Export Plug-In . SVG Version: 6.00 Build 0)  -->
<svg version="1.1" id="Layer_1" xmlns="http://www.w3.org/2000/svg" xmlns:xlink="http://www.w3.org/1999/xlink" x="0px" y="0px"
	 viewBox="0 0 841.9 480" enable-background="new 0 0 841.9 480" xml:space="preserve">
<g>
	<g>
		<polygon fill="#804465" points="589.7,245.5 589.7,206.9 525.6,206.9 525.6,245.5 493.8,245.5 493.8,196.3 432.5,196.3 
			432.5,245.5 238,245.5 238,445.8 603.9,445.8 603.9,245.5 		"/>
		<rect x="238" y="463.7" fill="#804465" width="365.9" height="16.2"/>
		<path fill="#C1D8DB" d="M428.8,190.7v62.1h68.8v-62.1H428.8z M481.5,239.4h-38.9v-35.1h38.9V239.4z"/>
		<path fill="#FFFFFF" d="M462.4,262.3c-46.5,0-84.2,37.7-84.2,84.2c0,46.5,37.7,84.2,84.2,84.2s84.2-37.7,84.2-84.2
			C546.5,300,508.9,262.3,462.4,262.3z M461.6,407c-33.9,0-61.3-27.5-61.3-61.3c0-33.9,27.5-61.3,61.3-61.3
			c33.9,0,61.3,27.5,61.3,61.3C522.9,379.5,495.4,407,461.6,407z"/>
		<g>
			<polygon fill="#C1D8DB" points="437.2,217.6 324.7,217.6 324.7,196.8 261.5,196.8 261.5,217.6 238,217.6 238,246.1 437.2,246.1 
							"/>
			<rect x="492" y="217.6" fill="#C1D8DB" width="111.9" height="28.5"/>
		</g>
		<g>
			<path fill="none" stroke="#FFFFFF" stroke-width="9.3821" stroke-linecap="round" stroke-miterlimit="10" d="M463.2,300.3
				c-0.3,0-0.5,0-0.8,0c-25.6,0-46.3,20.7-46.3,46.3c0,0.6,0,1.2,0,1.8"/>
			<path fill="none" stroke="#FFFFFF" stroke-width="9.3821" stroke-linecap="round" stroke-miterlimit="10" d="M421.1,367.3
				c5.5,10.9,15.1,19.3,26.8,23.1"/>
		</g>
	</g>
	<polygon fill="#804465" points="841.9,0 787.8,0 787.8,0 0,0 48,61.3 0,122.6 54.1,122.6 54.1,122.6 841.9,122.6 793.9,61.3 	"/>
	<g opacity="0.79">
		<path fill="#FFFFFF" d="M325.3,104.7h-8v-17h4.6v12.9h3.4V104.7z"/>
		<path fill="#FFFFFF" d="M327.9,104.7v-17h8.5v4.1h-3.9v2.2h3.5V98h-3.5v2.6h3.9v4.1H327.9z"/>
		<path fill="#FFFFFF" d="M355.2,104.7h-4.7l-3.9-17h4.8l0.8,4.8c0.3,1.9,0.6,3.9,0.8,6.2c0.1-1,0.2-2,0.3-2.9
			c0.1-0.9,0.3-1.8,0.4-2.6l1.1-5.6h5L355.2,104.7z"/>
		<path fill="#FFFFFF" d="M373.8,104.7h-4.7l-0.3-2.2h-3.1l-0.4,2.2h-4.7l4.1-17h5.6L373.8,104.7z M368.2,99l-0.3-2c0,0,0-0.1,0-0.3
			c0-0.2-0.1-0.8-0.2-1.9c0-0.1,0-0.3-0.1-0.5c0-0.2-0.1-0.5-0.1-0.8l-0.1-1.6c0,0.2,0,0.3-0.1,0.5c0,0.2-0.1,0.4-0.1,0.6
			c-0.1,0.5-0.1,0.8-0.1,0.9c0,0.2,0,0.3,0,0.3l-0.3,2.1l-0.5,2.7H368.2z"/>
		<path fill="#FFFFFF" d="M396.7,104.7H392l-0.3-2.2h-3.1l-0.4,2.2h-4.7l4.1-17h5.6L396.7,104.7z M391.1,99l-0.3-2c0,0,0-0.1,0-0.3
			c0-0.2-0.1-0.8-0.2-1.9c0-0.1,0-0.3-0.1-0.5c0-0.2-0.1-0.5-0.1-0.8l-0.1-1.6c0,0.2,0,0.3-0.1,0.5c0,0.2-0.1,0.4-0.1,0.6
			c-0.1,0.5-0.1,0.8-0.1,0.9c0,0.2,0,0.3,0,0.3l-0.3,2.1l-0.5,2.7H391.1z"/>
		<path fill="#FFFFFF" d="M407.5,104.7v-17h8.5v4.1H412v2.2h3.5V98H412v2.6h3.9v4.1H407.5z"/>
		<path fill="#FFFFFF" d="M419.2,104.7v-17h4.4l2.3,6c0.1,0.4,0.3,0.8,0.4,1.2c0.2,0.5,0.3,1,0.5,1.6l0.5,1.5
			c-0.2-1.5-0.3-2.7-0.4-3.8c-0.1-1-0.1-1.9-0.1-2.6v-3.8h4.4v17h-4.4l-2.4-6.2c-0.3-0.7-0.5-1.3-0.7-1.9c-0.2-0.6-0.4-1.1-0.5-1.7
			c0.2,1.2,0.3,2.2,0.4,3.1c0.1,0.9,0.1,1.7,0.1,2.3v4.3H419.2z"/>
		<path fill="#FFFFFF" d="M444.6,99.5l-0.3,4.6c-1,0.4-1.9,0.6-2.7,0.6c-1.9,0-3.5-0.7-4.8-2c-1.5-1.5-2.2-3.6-2.2-6.4
			c0-2.6,0.7-4.7,2-6.2c1.4-1.6,3.2-2.3,5.5-2.3c0.7,0,1.5,0.1,2.3,0.4v4.7c-0.7-0.7-1.4-1-2.1-1c-0.9,0-1.7,0.4-2.2,1.2
			c-0.5,0.8-0.8,1.9-0.8,3.3c0,0.7,0.1,1.3,0.2,1.8c0.1,0.5,0.3,1,0.6,1.4c0.2,0.4,0.5,0.7,0.9,0.9c0.4,0.2,0.8,0.3,1.2,0.3
			C443,100.6,443.8,100.3,444.6,99.5z"/>
		<path fill="#FFFFFF" d="M460.2,104.7h-4.7l-0.3-2.2H452l-0.4,2.2h-4.7l4.1-17h5.6L460.2,104.7z M454.5,99l-0.3-2c0,0,0-0.1,0-0.3
			c0-0.2-0.1-0.8-0.2-1.9c0-0.1,0-0.3-0.1-0.5c0-0.2-0.1-0.5-0.1-0.8l-0.1-1.6c0,0.2,0,0.3-0.1,0.5c0,0.2-0.1,0.4-0.1,0.6
			c-0.1,0.5-0.1,0.8-0.1,0.9c0,0.2,0,0.3,0,0.3l-0.3,2.1l-0.5,2.7H454.5z"/>
		<path fill="#FFFFFF" d="M462.8,104.7v-17h4.4l2.3,6c0.1,0.4,0.3,0.8,0.4,1.2c0.2,0.5,0.3,1,0.5,1.6l0.5,1.5
			c-0.2-1.5-0.3-2.7-0.4-3.8c-0.1-1-0.1-1.9-0.1-2.6v-3.8h4.4v17h-4.4l-2.4-6.2c-0.3-0.7-0.5-1.3-0.7-1.9c-0.2-0.6-0.4-1.1-0.5-1.7
			c0.2,1.2,0.3,2.2,0.4,3.1c0.1,0.9,0.1,1.7,0.1,2.3v4.3H462.8z"/>
		<path fill="#FFFFFF" d="M484.3,104.7h-4.6V91.8h-2.5v-4.1h9.7v4.1h-2.6V104.7z"/>
		<path fill="#FFFFFF" d="M501.3,104.7h-4.7l-0.3-2.2h-3.1l-0.4,2.2H488l4.1-17h5.6L501.3,104.7z M495.7,99l-0.3-2c0,0,0-0.1,0-0.3
			c0-0.2-0.1-0.8-0.2-1.9c0-0.1,0-0.3-0.1-0.5c0-0.2-0.1-0.5-0.1-0.8l-0.1-1.6c0,0.2,0,0.3-0.1,0.5c0,0.2-0.1,0.4-0.1,0.6
			c-0.1,0.5-0.1,0.8-0.1,0.9c0,0.2,0,0.3,0,0.3l-0.3,2.1l-0.5,2.7H495.7z"/>
		<path fill="#FFFFFF" d="M516,104.7h-5l-2.3-6c0-0.1-0.1-0.2-0.1-0.4c-0.1-0.2-0.1-0.4-0.2-0.6l0,1.1v5.9h-4.6v-17h4.7
			c2.1,0,3.6,0.4,4.6,1.2c1.3,1,2,2.5,2,4.4c0,2.1-0.9,3.5-2.6,4.3L516,104.7z M508.5,95.3h0.3c0.5,0,1-0.2,1.3-0.6
			c0.4-0.4,0.5-0.9,0.5-1.5c0-1.3-0.7-1.9-2-1.9h-0.2V95.3z"/>
		<path fill="#FFFFFF" d="M524.3,102.1c0,0.7-0.3,1.3-0.8,1.8c-0.5,0.5-1.1,0.8-1.8,0.8c-0.7,0-1.3-0.2-1.8-0.8
			c-0.5-0.5-0.7-1.1-0.7-1.8c0-0.7,0.2-1.3,0.7-1.8c0.5-0.5,1.1-0.8,1.8-0.8c0.7,0,1.3,0.3,1.8,0.8
			C524.1,100.8,524.3,101.4,524.3,102.1z M524,97.4h-4.4V86.7h4.4V97.4z"/>
	</g>
	<g>
		<path fill="#C1D8DB" d="M248.9,38c-4.5,0-8.8,0.1-12.9,0.2c-4.1,0.1-8.4,0.1-12.9,0.2c0,6.2,0,12.3,0.1,18.5s0.1,12.3,0.2,18.4
			c-0.2,0.3-0.6,0.5-1.2,0.6c-0.5,0.1-1,0.1-1.6,0c-0.5-0.1-0.9-0.2-1.3-0.4c-0.4-0.2-0.5-0.4-0.5-0.7c0-9.1-0.1-18.1-0.1-27
			c0-8.9-0.1-17.9-0.1-27c0-0.1,0.2-0.3,0.7-0.3c0.5-0.1,1-0.1,1.5-0.1c0.6,0,1.1,0,1.5,0.1c0.5,0.1,0.7,0.2,0.7,0.3l0.1,13.1
			c4.4-0.1,8.7-0.2,12.8-0.2c4.1,0,8.4-0.1,13-0.2c0-2.1,0-4.2,0-6.3c0-2.1,0-4.2,0-6.4c0-0.1,0.2-0.3,0.7-0.3
			c0.4-0.1,0.9-0.1,1.5-0.1c0.6,0,1.1,0,1.5,0.1c0.5,0.1,0.7,0.2,0.8,0.3c0,4.3,0.1,8.8,0.1,13.4c0,4.6,0.1,9.2,0.1,13.8
			c0,4.7,0.1,9.3,0.1,13.8c0,4.6,0.1,9,0.1,13.3c-0.5,0.3-1,0.5-1.5,0.5c-0.5,0.1-1,0.1-1.4,0c-0.4-0.1-0.8-0.2-1.1-0.4
			c-0.3-0.2-0.5-0.4-0.5-0.6L248.9,38z"/>
		<path fill="#C1D8DB" d="M255.8,22.1c0-1.2,0.3-1.9,0.8-2.2c0.5-0.3,1.7-0.5,3.6-0.5l17.8,0.1c0.1,0,0.2,0.2,0.3,0.7
			c0,0.4,0,0.9,0,1.4c0,0.5-0.1,1-0.2,1.5c-0.1,0.5-0.2,0.7-0.3,0.8c-1.1,0-2.4,0-3.9,0c-1.5,0-3.1,0-4.7,0c-1.6,0-3.2,0-4.8,0
			c-1.6,0-2.9,0-4.1,0c0,2.1,0,4.2,0,6.2c0,2,0,4,0.1,6c0,2,0,4,0.1,6c0,2,0,4.1,0,6.3c2.3,0,4.7,0,7.3,0.1c2.6,0,5,0.1,7.4,0.1
			c0.1,0,0.2,0.2,0.3,0.7c0,0.4,0,0.9,0,1.4c0,0.5-0.1,1-0.2,1.5c-0.1,0.5-0.2,0.7-0.3,0.8h-14.5c0,3.4,0.1,6.7,0.1,9.8
			s0,6.4,0.1,9.9c2.9,0,5.8,0,8.7,0.1s5.8,0.1,8.6,0.1c0.1,0,0.2,0.2,0.3,0.7c0,0.4,0,0.9,0,1.4c0,0.5-0.1,1-0.2,1.5
			c-0.1,0.5-0.2,0.7-0.3,0.8c-1.2,0-2.6,0-4.3,0c-1.7,0-3.4,0-5.1,0c-1.7,0-3.4,0-5.1,0s-3.1,0-4.2,0h-0.3c-0.3,0-0.6,0-0.9,0
			c-0.3,0-0.6-0.1-0.8-0.2c-0.2-0.1-0.4-0.3-0.6-0.6c-0.2-0.3-0.3-0.7-0.3-1.3L255.8,22.1z"/>
		<path fill="#C1D8DB" d="M310,68.8c0.8-0.3,1.4-0.3,1.8,0c0.4,0.3,0.7,0.7,0.8,1.2c0.1,0.5,0.1,1,0,1.6c-0.1,0.5-0.4,0.9-0.7,1.2
			c-1.1,0.8-2.3,1.5-3.6,2.1c-1.3,0.6-2.7,1.1-4.1,1.4s-2.7,0.6-4,0.8c-1.3,0.2-2.4,0.2-3.4,0.2c-2.8-0.3-5.3-1.4-7.2-3.3
			c-2-1.9-3.6-4.1-4.9-6.7c-1.3-2.6-2.2-5.3-2.8-8.1c-0.6-2.8-0.9-5.3-1-7.4c0-2,0-4.1,0.2-6.5c0.2-2.4,0.6-4.7,1.1-7.1
			c0.5-2.4,1.3-4.7,2.2-6.9c0.9-2.2,2.1-4.2,3.5-6s3.2-3.2,5.2-4.3c2-1.1,4.3-1.8,7-2c1,0,2.1,0.1,3.3,0.3c1.2,0.3,2.3,0.7,3.5,1.3
			c1.1,0.6,2.2,1.3,3.1,2.1c1,0.8,1.7,1.8,2.3,2.9c0.2,0.3,0.1,0.7-0.2,1c-0.3,0.3-0.7,0.6-1.2,0.9s-1,0.4-1.4,0.5
			c-0.5,0.1-0.7,0.1-0.8,0c-0.4-0.8-0.9-1.4-1.6-2c-0.7-0.6-1.3-1.1-2.1-1.5c-0.7-0.4-1.5-0.7-2.3-0.9c-0.8-0.2-1.5-0.2-2.2-0.2
			c-2.1,0.1-3.9,0.7-5.5,1.7c-1.6,1-3,2.2-4.1,3.8c-1.1,1.5-2.1,3.3-2.8,5.2c-0.7,2-1.3,4-1.8,6c-0.4,2-0.7,4.1-0.9,6.1
			c-0.1,2-0.2,3.9-0.1,5.5c0,1.7,0.3,3.8,0.8,6.1c0.5,2.3,1.2,4.6,2.1,6.8c0.9,2.2,2.1,4,3.5,5.6s3.1,2.5,5.1,2.7
			c0.9,0.1,1.9,0.1,3,0c1.1-0.1,2.3-0.3,3.5-0.7c1.2-0.3,2.3-0.8,3.4-1.3c1.1-0.5,2-1.1,2.7-1.8L310,68.8z"/>
		<path fill="#C1D8DB" d="M345.8,38c-4.5,0-8.8,0.1-12.9,0.2c-4.1,0.1-8.4,0.1-12.9,0.2c0,6.2,0,12.3,0.1,18.5
			c0.1,6.1,0.1,12.3,0.2,18.4c-0.2,0.3-0.6,0.5-1.2,0.6s-1,0.1-1.6,0c-0.5-0.1-0.9-0.2-1.3-0.4c-0.4-0.2-0.5-0.4-0.5-0.7
			c0-9.1-0.1-18.1-0.1-27c0-8.9-0.1-17.9-0.1-27c0-0.1,0.2-0.3,0.7-0.3c0.5-0.1,1-0.1,1.5-0.1c0.6,0,1.1,0,1.5,0.1
			c0.5,0.1,0.7,0.2,0.7,0.3l0.1,13.1c4.4-0.1,8.7-0.2,12.8-0.2c4.1,0,8.4-0.1,13-0.2c0-2.1,0-4.2,0-6.3c0-2.1,0-4.2,0-6.4
			c0-0.1,0.2-0.3,0.7-0.3c0.4-0.1,0.9-0.1,1.5-0.1c0.6,0,1.1,0,1.5,0.1c0.5,0.1,0.7,0.2,0.8,0.3c0,4.3,0.1,8.8,0.1,13.4
			c0,4.6,0.1,9.2,0.1,13.8c0,4.7,0.1,9.3,0.1,13.8c0,4.6,0.1,9,0.1,13.3c-0.5,0.3-1,0.5-1.5,0.5c-0.5,0.1-1,0.1-1.4,0
			c-0.4-0.1-0.8-0.2-1.1-0.4c-0.3-0.2-0.5-0.4-0.5-0.6L345.8,38z"/>
		<path fill="#C1D8DB" d="M388.6,49.5c-0.1,3.6-0.6,7.1-1.4,10.4c-0.8,3.3-1.9,6.2-3.4,8.8c-1.5,2.6-3.3,4.7-5.5,6.2
			c-2.2,1.6-4.7,2.4-7.4,2.4c-2.9,0.1-5.5-0.5-7.8-1.8c-2.3-1.3-4.3-3.1-5.9-5.4c-1.6-2.3-2.8-5.1-3.6-8.2
			c-0.8-3.2-1.2-6.6-1.2-10.3c0-3.8,0.4-7.5,1.1-11.3c0.7-3.8,1.8-7.2,3.3-10.3c1.5-3.1,3.4-5.6,5.8-7.6c2.4-2,5.3-3.1,8.8-3.3
			c2.6,0,4.9,0.7,7,2.1s3.9,3.4,5.5,5.9c1.5,2.5,2.7,5.4,3.5,8.9c0.8,3.4,1.3,7.1,1.3,11.1c0,0.4,0,0.8,0,1.1
			C388.6,48.6,388.6,49,388.6,49.5L388.6,49.5z M356.8,51c0,2.6,0.2,5.1,0.7,7.6c0.5,2.5,1.3,4.8,2.5,6.8c1.1,2,2.6,3.7,4.4,5
			c1.8,1.3,3.9,2.1,6.4,2.2c1.9,0,3.7-0.7,5.3-1.9c1.6-1.2,3-2.9,4.2-5c1.2-2.1,2.1-4.5,2.8-7.3c0.7-2.8,1.1-5.8,1.2-9.1
			c0-3.9-0.2-7.4-0.8-10.6c-0.6-3.2-1.4-5.9-2.5-8.1c-1.1-2.2-2.5-4-4.1-5.2c-1.6-1.2-3.4-1.8-5.3-1.8c-2.6,0-4.7,0.7-6.5,2.2
			c-1.8,1.5-3.3,3.5-4.5,6c-1.2,2.5-2.1,5.4-2.7,8.7C357.2,43.8,356.9,47.3,356.8,51z"/>
		<path fill="#C1D8DB" d="M452.5,75.3c0,0.1-0.3,0.3-0.7,0.5c-0.4,0.2-0.9,0.4-1.4,0.5c-0.5,0.1-1,0.2-1.4,0.2c-0.4,0-0.7,0-0.7-0.1
			c-0.4-1.7-0.9-3.3-1.3-4.9c-0.4-1.6-0.9-3.2-1.3-5c-3.4,0-6.6,0-9.8,0c-3.1,0-6.4,0-9.8,0c-0.4,1.7-0.9,3.3-1.3,4.9
			c-0.4,1.6-0.8,3.2-1.2,4.9c0,0.1-0.3,0.2-0.7,0.1c-0.4,0-0.9-0.1-1.4-0.3c-0.5-0.1-1-0.3-1.4-0.5c-0.4-0.2-0.6-0.4-0.7-0.5
			c1.2-4.4,2.3-8.9,3.5-13.5c1.2-4.6,2.4-9.2,3.6-13.9c1.2-4.7,2.4-9.3,3.6-13.9c1.2-4.6,2.4-9.1,3.5-13.5c0.1-0.5,0.4-0.9,0.9-1.2
			c0.5-0.2,0.9-0.3,1.4-0.3c0.5,0,1,0.2,1.4,0.4c0.4,0.3,0.7,0.6,0.8,1L452.5,75.3z M427.3,62.2c2.9,0,5.7,0,8.5-0.1
			c2.8,0,5.7-0.1,8.8-0.1c-0.8-3-1.6-5.8-2.2-8.4c-0.7-2.6-1.4-5.2-2-7.8c-0.7-2.6-1.4-5.2-2.1-7.8c-0.7-2.7-1.5-5.5-2.3-8.7
			L427.3,62.2z"/>
		<path fill="#C1D8DB" d="M502.8,50.5c-0.2,0.4-0.6,0.7-0.9,0.8c-0.4,0.1-0.8,0.2-1.2,0.2c-0.4,0-0.8-0.1-1.2-0.3
			c-0.4-0.2-0.7-0.5-0.9-0.8L488,29.9c0.1,7.7,0.1,15.2,0.1,22.7c0,7.5,0,15,0.1,22.6c-0.1,0.3-0.5,0.5-0.9,0.5
			c-0.5,0.1-1,0.1-1.5,0c-0.5-0.1-1-0.2-1.4-0.4c-0.4-0.2-0.7-0.4-0.7-0.6c0-9.1-0.1-18-0.1-26.9c0-8.9-0.1-17.8-0.1-26.9
			c0-0.7,0.2-1.1,0.6-1.4c0.4-0.3,0.9-0.4,1.4-0.4c0.5,0,1,0,1.4,0.2c0.5,0.1,0.7,0.3,0.8,0.4c1.1,2.2,2.2,4.3,3.2,6.3
			c1,2,2.1,4.1,3.1,6.1c1.1,2,2.1,4.1,3.2,6.1c1.1,2.1,2.1,4.2,3.3,6.4c2.1-4.1,4.2-8.3,6.4-12.4c2.1-4.1,4.2-8.3,6.4-12.4
			c0.1-0.1,0.4-0.3,0.8-0.4s0.9-0.2,1.4-0.2c0.5,0,1,0.2,1.4,0.4c0.4,0.3,0.6,0.7,0.6,1.4l-0.2,54.2c-0.1,0.2-0.4,0.4-0.8,0.5
			c-0.5,0.1-0.9,0.2-1.4,0.2c-0.5,0-1,0-1.4-0.2c-0.4-0.1-0.7-0.4-0.8-0.7c0-4.2,0.1-8.2,0.1-11.8c0-3.6,0-7.2,0.1-10.7
			c0-3.5,0-7.1,0.1-10.7c0-3.6,0-7.6,0-11.9L502.8,50.5z"/>
		<path fill="#C1D8DB" d="M552.6,75.3c0,0.1-0.3,0.3-0.7,0.5c-0.4,0.2-0.9,0.4-1.4,0.5c-0.5,0.1-1,0.2-1.4,0.2c-0.4,0-0.7,0-0.7-0.1
			c-0.4-1.7-0.9-3.3-1.3-4.9c-0.4-1.6-0.9-3.2-1.3-5c-3.4,0-6.6,0-9.8,0c-3.1,0-6.4,0-9.8,0c-0.4,1.7-0.9,3.3-1.3,4.9
			c-0.4,1.6-0.8,3.2-1.2,4.9c0,0.1-0.3,0.2-0.7,0.1c-0.4,0-0.9-0.1-1.4-0.3c-0.5-0.1-1-0.3-1.4-0.5c-0.4-0.2-0.6-0.4-0.7-0.5
			c1.2-4.4,2.3-8.9,3.5-13.5c1.2-4.6,2.4-9.2,3.6-13.9c1.2-4.7,2.4-9.3,3.6-13.9c1.2-4.6,2.4-9.1,3.5-13.5c0.1-0.5,0.4-0.9,0.9-1.2
			c0.5-0.2,0.9-0.3,1.4-0.3c0.5,0,1,0.2,1.4,0.4c0.4,0.3,0.7,0.6,0.8,1L552.6,75.3z M527.4,62.2c2.9,0,5.7,0,8.5-0.1
			c2.8,0,5.7-0.1,8.8-0.1c-0.8-3-1.6-5.8-2.2-8.4c-0.7-2.6-1.3-5.2-2-7.8c-0.7-2.6-1.4-5.2-2.1-7.8c-0.7-2.7-1.5-5.5-2.3-8.7
			L527.4,62.2z"/>
		<path fill="#C1D8DB" d="M559.9,75.2c-0.3,0.4-0.7,0.7-1.3,0.8c-0.6,0.1-1.1,0.1-1.6,0c-0.5-0.1-0.9-0.3-1.3-0.5
			c-0.3-0.2-0.5-0.5-0.4-0.8c0-8.9-0.1-17.8-0.1-26.5c0-8.8-0.1-17.6-0.1-26.5c0-0.4,0.2-0.7,0.6-1c0.4-0.3,0.8-0.4,1.3-0.5
			c0.5-0.1,1,0,1.5,0.1c0.5,0.1,0.8,0.4,1,0.7l20.6,44.2c0-3.1,0-6.5,0-10.2c0-3.7-0.1-7.5-0.1-11.4c0-3.9-0.1-7.7-0.1-11.4
			c0-3.7,0-7.1,0-10.2c0-0.2,0.2-0.3,0.7-0.4s0.9-0.1,1.5-0.1c0.6,0,1.1,0,1.5,0.1c0.5,0.1,0.7,0.2,0.8,0.4c0,4.2,0.1,8.6,0.1,13.1
			c0,4.5,0.1,9.1,0.1,13.6c0,4.6,0.1,9.1,0.1,13.6c0,4.5,0.1,8.9,0.1,13.1c0,0.4-0.2,0.8-0.7,1.1s-0.9,0.5-1.4,0.6
			c-0.5,0.1-1,0-1.5-0.2c-0.5-0.2-0.8-0.6-0.9-1.2c-0.1-0.3-0.4-0.7-0.6-1.2c-0.3-0.5-0.6-1.2-1-2.1c-0.4-0.9-1-2.1-1.6-3.5
			c-0.7-1.4-1.5-3.1-2.4-5.1c-0.8-1.8-1.7-3.6-2.5-5.4c-0.8-1.8-1.8-4-3-6.4c-1.1-2.4-2.5-5.3-4-8.5c-1.5-3.3-3.3-7.2-5.5-11.8
			L559.9,75.2z"/>
		<path fill="#C1D8DB" d="M623.4,49.5c-0.1,3.6-0.6,7.1-1.4,10.4c-0.8,3.3-1.9,6.2-3.4,8.8c-1.5,2.6-3.3,4.7-5.5,6.2
			c-2.2,1.6-4.7,2.4-7.4,2.4c-2.9,0.1-5.5-0.5-7.8-1.8c-2.3-1.3-4.3-3.1-5.9-5.4c-1.6-2.3-2.8-5.1-3.6-8.2
			c-0.8-3.2-1.2-6.6-1.2-10.3c0-3.8,0.4-7.5,1.1-11.3c0.7-3.8,1.8-7.2,3.3-10.3c1.5-3.1,3.4-5.6,5.8-7.6c2.4-2,5.3-3.1,8.8-3.3
			c2.6,0,4.9,0.7,7,2.1s3.9,3.4,5.5,5.9c1.5,2.5,2.7,5.4,3.5,8.9c0.8,3.4,1.3,7.1,1.3,11.1c0,0.4,0,0.8,0,1.1
			C623.4,48.6,623.4,49,623.4,49.5L623.4,49.5z M591.7,51c0,2.6,0.2,5.1,0.7,7.6c0.5,2.5,1.3,4.8,2.5,6.8c1.1,2,2.6,3.7,4.4,5
			c1.8,1.3,3.9,2.1,6.4,2.2c1.9,0,3.7-0.7,5.3-1.9c1.6-1.2,3-2.9,4.2-5c1.2-2.1,2.1-4.5,2.8-7.3c0.7-2.8,1.1-5.8,1.2-9.1
			c0-3.9-0.2-7.4-0.8-10.6c-0.6-3.2-1.4-5.9-2.5-8.1c-1.1-2.2-2.5-4-4.1-5.2c-1.6-1.2-3.4-1.8-5.3-1.8c-2.6,0-4.7,0.7-6.5,2.2
			c-1.8,1.5-3.3,3.5-4.5,6c-1.2,2.5-2.1,5.4-2.7,8.7C592,43.8,591.7,47.3,591.7,51z"/>
	</g>
</g>
</svg>
