<?xml version="1.0" encoding="utf-8"?>
<!-- Generator: Adobe Illustrator 18.1.0, SVG Export Plug-In . SVG Version: 6.00 Build 0)  -->
<svg version="1.1" id="Layer_1" xmlns="http://www.w3.org/2000/svg" xmlns:xlink="http://www.w3.org/1999/xlink" x="0px" y="0px"
	 viewBox="0 0 308.1 419.6" enable-background="new 0 0 308.1 419.6" xml:space="preserve">
<rect y="0" fill="#E7DED5" width="308.1" height="419.6"/>
<g>
	<g>
		<path d="M46.6,201.6v-23h4.5c1.8,0,3.3,0.1,4.8,1.3c1.5,1.2,2.4,3.3,2.4,5.2c0,2-0.8,3.6-2.5,4.8c1.9,0.9,2.8,3.4,2.8,5.3
			c0,4.6-3.4,6.5-7.5,6.5H46.6z M51.2,182.3v5.6c1.7,0,2.7-1.2,2.7-2.9C53.9,183.4,52.9,182.3,51.2,182.3z M51.2,191.5v6.2
			c1.8,0.1,2.9-1.3,2.9-3.2C54.1,192.8,53,191.5,51.2,191.5z"/>
		<path d="M70,178.5l5.5,23h-4.9l-0.9-3.9h-4.6l-0.8,3.9h-4.5l5.3-23H70z M71.2,173.1l-3.9,4.2l-2.1-1.2l2.9-4.4L71.2,173.1z
			 M68,187.9l-0.5-3.5h-0.1l-0.5,3.5l-1,6.1h3.2L68,187.9z"/>
		<path d="M86.9,183.7c-0.9-0.8-2-1.5-3.3-1.5c-1.4,0-2.3,0.9-2.3,2.3c0,3.8,6.9,4,6.9,10.2c0,4.1-2.4,7.2-6.6,7.2
			c-1.3,0-2.9-0.4-3.9-1.2v-4.3c1.1,0.7,2.1,1.2,3.5,1.2c1.5,0,2.6-1,2.6-2.5c0-1.8-1.4-2.4-2.7-3.4c-2.6-1.8-4.2-3.5-4.2-6.8
			c0-3.6,2.1-6.8,6-6.8c1.5,0,2.8,0.4,4,1.1V183.7z"/>
		<path d="M95.4,178.5v23h-4.6v-23H95.4z"/>
		<path d="M110.1,182.9c-0.6-0.2-1.1-0.2-1.7-0.2c-4,0-5.7,3.6-5.7,7.2c0,3.4,1.7,7.6,5.7,7.6c0.6,0,1.2-0.2,1.7-0.3v4.3
			c-0.7,0.3-1.4,0.4-2.1,0.4c-6.6,0-10.2-5.9-10.2-12c0-5.7,3.8-11.6,10-11.6c0.8,0,1.6,0.2,2.3,0.4V182.9z"/>
		<path d="M127.8,190c0,8.6-4,11.9-8.1,11.9s-8.1-3.2-8.1-11.9s4-11.9,8.1-11.9S127.8,181.4,127.8,190z M119.7,197.7
			c3,0,3.2-5.8,3.2-7.7c0-2-0.2-7.7-3.2-7.7s-3.2,5.6-3.2,7.7C116.5,191.9,116.7,197.7,119.7,197.7z"/>
	</g>
	<g>
		<path d="M58.1,281.5c-0.6-0.2-1.1-0.2-1.7-0.2c-4,0-5.7,3.6-5.7,7.2c0,3.4,1.7,7.6,5.7,7.6c0.6,0,1.2-0.2,1.7-0.3v4.3
			c-0.7,0.3-1.4,0.4-2.1,0.4c-6.6,0-10.2-5.9-10.2-12c0-5.7,3.8-11.6,10-11.6c0.8,0,1.6,0.2,2.3,0.4V281.5z"/>
		<path d="M75.8,288.7c0,8.6-4,11.9-8.1,11.9s-8.1-3.2-8.1-11.9s4-11.9,8.1-11.9S75.8,280,75.8,288.7z M67.7,296.4
			c3,0,3.2-5.8,3.2-7.7c0-2-0.2-7.7-3.2-7.7s-3.2,5.6-3.2,7.7C64.5,290.5,64.7,296.4,67.7,296.4z"/>
		<path d="M85.3,277.2l2.2,13.6h0.1l1.8-13.6h6.1l2.4,23h-4.7l-1.1-16.6h-0.1l-0.7,5.7l-2,10.9h-3.5l-2.2-11l-0.8-5.1v-0.4h-0.1
			l-0.7,16.6h-4.9l2-23H85.3z"/>
		<path d="M100.3,300.2v-23h4.7c1,0,7.8-0.6,7.8,6.8c0,4.3-2.8,6.8-7,6.8l-1-0.1v9.5H100.3z M104.8,287c2.2,0.1,3.5-0.7,3.5-3.1
			c0-1.7-0.6-3-2.6-3h-0.9V287z"/>
		<path d="M119.7,277.2v18.8h4.8v4.3h-9.3v-23H119.7z"/>
		<path d="M135.7,277.2v4.3h-4.6v5h4.1v4.3h-4.1v5.2h4.7v4.3h-9.2v-23H135.7z"/>
		<path d="M149.1,277.2v4.3h-3.6v18.8h-4.6v-18.8h-3.6v-4.3H149.1z"/>
		<path d="M166.5,288.7c0,8.6-4,11.9-8.1,11.9c-4.1,0-8.1-3.2-8.1-11.9s4-11.9,8.1-11.9C162.5,276.8,166.5,280,166.5,288.7z
			 M158.5,296.4c3,0,3.2-5.8,3.2-7.7c0-2-0.2-7.7-3.2-7.7c-3,0-3.2,5.6-3.2,7.7C155.2,290.5,155.4,296.4,158.5,296.4z"/>
	</g>
	<circle cx="211.8" cy="288.1" r="33.2"/>
	<g>
		<path fill="#FFFFFF" d="M197.5,294v1.6h-9.9l7.2-8.4c0.6-0.7,1-1.6,1-2.6c0-1.7-1.4-3-3-3c-1.8,0-3,1.4-3.1,3.1H188
			c0.1-2.7,2-4.7,4.7-4.7c2.6,0,4.8,1.9,4.8,4.5c0,1.2-0.4,2.3-1.2,3.2l-5.3,6.2H197.5z"/>
		<path fill="#FFFFFF" d="M211,288c0,3.8-2,7.9-5.5,7.9c-3.5,0-5.5-4.1-5.5-7.9c0-3.1,1.6-7.9,5.5-7.9C209.4,280,211,284.8,211,288z
			 M201.8,288c0,2.1,1,6.2,3.8,6.2s3.7-4.1,3.8-6.2c0-2.2-0.9-6.4-3.8-6.4C202.7,281.6,201.7,285.9,201.8,288z"/>
		<path fill="#FFFFFF" d="M223.5,288c0,3.8-2,7.9-5.5,7.9c-3.5,0-5.5-4.1-5.5-7.9c0-3.1,1.6-7.9,5.5-7.9
			C221.9,280,223.5,284.8,223.5,288z M214.2,288c0,2.1,1,6.2,3.8,6.2s3.7-4.1,3.8-6.2c0-2.2-0.9-6.4-3.8-6.4
			C215.1,281.6,214.2,285.9,214.2,288z"/>
		<path fill="#FFFFFF" d="M235.7,282.8c-0.7-0.6-1.8-1.2-3.4-1.2c-2.6,0-3.9,1.8-4.2,4.2h6.6l-0.5,1.3H228c0,0.2,0,0.5,0,0.8
			c0,0.3,0,0.6,0,0.9h5.7l-0.5,1.3h-5.1c0.4,2.7,1.8,4.3,4.2,4.3c1.6,0,2.7-0.5,3.4-1.2v1.7c-0.5,0.5-1.8,1-3.6,1
			c-3.1,0-5.1-1.8-5.7-5.8h-1.6l0.5-1.3h1c0-0.2,0-0.6,0-0.9s0-0.6,0-0.8h-1.5l0.5-1.3h1.1c0.5-3.3,2.1-5.7,5.7-5.7
			c1.7,0,3,0.5,3.6,1V282.8z"/>
	</g>
	<g>
		<g>
			<path fill="#FFFFFF" d="M247.9,288.1c-0.3,15.1-9.5,28.9-24,34c-14.2,5-30.2,0.6-39.9-10.9c-9.7-11.5-11-28.4-3.4-41.3
				c7.7-13.1,23.2-20.2,38.1-17.2C235.7,256,247.6,271,247.9,288.1c0.1,2.8,4.4,2.8,4.4,0c-0.3-16.9-10.6-32.1-26.5-38
				c-16.2-6-34.9-0.7-45.6,12.8c-10.3,12.9-11.7,31.4-3.3,45.6c8.6,14.6,25.8,22.4,42.4,19.4c19.2-3.5,32.7-20.6,33-39.8
				C252.3,285.3,247.9,285.3,247.9,288.1z"/>
		</g>
	</g>
	<circle cx="180.2" cy="190.3" r="33.2"/>
	<g>
		<path fill="#FFFFFF" d="M158.4,184l0.9-1.6h3.3v15.3h-1.7V184H158.4z"/>
		<path fill="#FFFFFF" d="M176.3,183.1l-3.5,4.7l0,0c0.2-0.1,0.4-0.1,0.6-0.2c0.2,0,0.5-0.1,0.7-0.1c2.8,0,4.9,2.3,4.9,5
			c0,2.9-2.4,5.2-5.3,5.2c-2.9,0-5.3-2.4-5.3-5.2c0-1.4,0.6-2.6,1.4-3.7l5.1-6.9L176.3,183.1z M177.4,192.8c0-2-1.6-3.5-3.6-3.5
			c-2,0-3.6,1.5-3.6,3.5c0,2,1.6,3.6,3.6,3.6C175.8,196.4,177.4,194.8,177.4,192.8z"/>
		<path fill="#FFFFFF" d="M191.9,190.1c0,3.8-2,7.9-5.5,7.9s-5.5-4.1-5.5-7.9c0-3.1,1.6-7.9,5.5-7.9S191.9,187,191.9,190.1z
			 M182.6,190.2c0,2.1,1,6.2,3.8,6.2s3.7-4.1,3.8-6.2c0-2.2-0.9-6.4-3.8-6.4C183.5,183.8,182.6,188,182.6,190.2z"/>
		<path fill="#FFFFFF" d="M204.1,184.9c-0.7-0.6-1.8-1.2-3.4-1.2c-2.6,0-3.9,1.8-4.2,4.2h6.6l-0.5,1.3h-6.3c0,0.2,0,0.5,0,0.8
			c0,0.3,0,0.6,0,0.9h5.7l-0.5,1.3h-5.1c0.4,2.7,1.8,4.3,4.2,4.3c1.6,0,2.7-0.5,3.4-1.2v1.7c-0.5,0.5-1.8,1-3.6,1
			c-3.1,0-5.1-1.8-5.7-5.8h-1.6l0.5-1.3h1c0-0.2,0-0.6,0-0.9c0-0.3,0-0.6,0-0.8h-1.5l0.5-1.3h1.1c0.5-3.3,2.1-5.7,5.7-5.7
			c1.7,0,3,0.5,3.6,1V184.9z"/>
	</g>
	<g>
		<g>
			<path fill="#FFFFFF" d="M216.3,190.3c-0.3,15.1-9.5,28.9-24,34c-14.2,5-30.2,0.6-39.9-10.9c-9.7-11.5-11-28.4-3.4-41.3
				c7.7-13.1,23.2-20.2,38.1-17.2C204.1,158.2,216,173.2,216.3,190.3c0.1,2.8,4.4,2.8,4.4,0c-0.3-16.9-10.6-32.1-26.5-38
				c-16.2-6-34.9-0.7-45.6,12.8c-10.3,12.9-11.7,31.4-3.3,45.6c8.6,14.6,25.8,22.4,42.4,19.4c19.2-3.5,32.7-20.6,33-39.8
				C220.7,187.4,216.3,187.4,216.3,190.3z"/>
		</g>
	</g>
	<g>
		<g>
			<path fill="none" stroke="#FFFFFF" stroke-width="1.6884" stroke-miterlimit="10" d="M107.2,220.5c0,0,19.3,18.2,35.7,16.5"/>
			<g>
				<polygon fill="#FFFFFF" points="153.7,232 140.8,244.7 141.8,236.9 135.5,232.1 				"/>
			</g>
		</g>
	</g>
	<g>
		<g>
			<path fill="none" stroke="#FFFFFF" stroke-width="1.6884" stroke-miterlimit="10" d="M146.1,318.6c0,0,19.3,18.2,35.7,16.5"/>
			<g>
				<polygon fill="#FFFFFF" points="192.6,330.1 179.7,342.9 180.8,335 174.5,330.2 				"/>
			</g>
		</g>
	</g>
	<g>
		<path d="M121.2,63h9.5c4.8,0,8.4,2.5,8.4,7.6c0,4.2-2.6,6.8-6.8,6.8h-3.8v6.2h-7.2V63z M128.5,72.2h0.7c1.3,0,2.7-0.2,2.7-1.9
			c0-1.6-1.5-1.7-2.8-1.7h-0.7V72.2z"/>
		<path d="M145.1,83.6h-7.9l7.2-20.6h8.3l7.4,20.6H152l-0.7-2.6h-5.7L145.1,83.6z M150,76.2l-0.9-3.6c-0.2-0.9-0.4-1.8-0.5-2.7h-0.3
			l-1.4,6.3H150z"/>
		<path d="M176.8,71.4c-1.2-1.1-2.7-2.1-4.4-2.1c-2.2,0-4.1,1.8-4.1,4c0,2.3,1.9,4,4.2,4c1.7,0,3.1-0.7,4.3-1.9l-0.2,7.7
			c-1.2,0.6-4,0.8-5.3,0.8c-5.9,0-10.5-4.6-10.5-10.5c0-6,4.7-10.8,10.8-10.8c1.7,0,3.4,0.3,5,0.8L176.8,71.4z"/>
		<path d="M179.5,63h7.3l-0.2,9h0.2c0.2-0.8,0.6-1.6,1-2.3l3.6-6.6h8.2l-6.5,10l7.1,10.6h-8.7l-3.6-6.2c-0.4-0.8-1.1-1.6-1.3-2.4
			h-0.2l0.2,8.7h-7.3V63z"/>
		<path d="M124.3,95.8h8.7c4,0,8.1,1,8.1,5.7c0,1.8-0.9,3.6-2.7,4.2v0.2c2.2,0.8,3.7,2.4,3.7,4.9c0,4.2-3.9,5.7-7.6,5.7h-10.2V95.8z
			 M131.9,103.8c1.1,0,2.3-0.1,2.3-1.5c0-1.5-1.4-1.4-2.5-1.4h-0.5v3H131.9z M131.3,111.5h0.8c1.2,0,3,0,3-1.7
			c0-1.7-1.9-1.7-3.1-1.7h-0.7V111.5z"/>
		<path d="M144.4,95.8h13.9v5.6H152v2h5.8v5.4H152v2h6.5v5.6h-14.1V95.8z"/>
		<path d="M161.5,95.8h8.7c4,0,8.1,1,8.1,5.7c0,1.8-0.9,3.6-2.7,4.2v0.2c2.2,0.8,3.7,2.4,3.7,4.9c0,4.2-3.9,5.7-7.6,5.7h-10.2V95.8z
			 M169.2,103.8c1.1,0,2.3-0.1,2.3-1.5c0-1.5-1.4-1.4-2.5-1.4h-0.5v3H169.2z M168.5,111.5h0.8c1.2,0,3,0,3-1.7
			c0-1.7-1.9-1.7-3.1-1.7h-0.7V111.5z"/>
		<path d="M181.6,95.8h13.9v5.6h-6.3v2h5.8v5.4h-5.8v2h6.5v5.6h-14.1V95.8z M192.1,91.1l-4.5,3.9l-2.5-1.7l3.6-4.5L192.1,91.1z"/>
	</g>
</g>
</svg>
