<?xml version="1.0" encoding="utf-8"?>
<!-- Generator: Adobe Illustrator 18.1.0, SVG Export Plug-In . SVG Version: 6.00 Build 0)  -->
<svg version="1.1" id="Layer_1" xmlns="http://www.w3.org/2000/svg" xmlns:xlink="http://www.w3.org/1999/xlink" x="0px" y="0px"
	 viewBox="0 0 340.2 463.3" enable-background="new 0 0 340.2 463.3" xml:space="preserve">
<g>
	<rect fill="#E6DDD5" width="340.2" height="463.3"/>
	<g>
		<g>
			<path fill="#1D1D1B" d="M60.6,202.3h-3.1v-15.8h4.2c3.3,0,5.5,1.3,5.5,4.9c0,3.3-1.8,5-5,5h-1.5V202.3z M60.6,193.8h0.6
				c1.8,0,2.8-0.4,2.8-2.4c0-2-1.2-2.3-2.9-2.3h-0.5V193.8z"/>
			<path fill="#1D1D1B" d="M70.1,198.9l-1.3,3.3h-3.2l6.2-16.2h2.4l6,16.2h-3.3l-1.2-3.3H70.1z M72.7,190.7L72.7,190.7l-1.8,5.7h3.7
				L72.7,190.7z"/>
			<path fill="#1D1D1B" d="M91.7,202.3h-3.7l-3.8-6.4h0v6.4H81v-15.8h4.2c3.1,0,5.3,1.4,5.3,4.7c0,2-1.1,4-3.2,4.4L91.7,202.3z
				 M84.1,193.8h0.4c1.7,0,2.9-0.5,2.9-2.4c0-1.9-1.2-2.3-2.9-2.3h-0.4V193.8z"/>
			<path fill="#1D1D1B" d="M95.9,198.9l-1.3,3.3h-3.2l6.2-16.2h2.4l6,16.2h-3.3l-1.2-3.3H95.9z M98.6,190.7L98.6,190.7l-1.8,5.7h3.7
				L98.6,190.7z"/>
			<path fill="#1D1D1B" d="M115.9,199.6h4.4v2.7h-7.4v-15.8h3.1V199.6z"/>
			<path fill="#1D1D1B" d="M128.3,202.7c-4.8,0-7.8-3.7-7.8-8.3c0-4.7,3.1-8.3,7.8-8.3c4.7,0,7.8,3.6,7.8,8.3
				C136.1,199,133.1,202.7,128.3,202.7z M128.3,189.1c-2.9,0-4.6,2.6-4.6,5.1c0,2.4,1.2,5.4,4.6,5.4c3.4,0,4.6-3,4.6-5.4
				C133,191.7,131.2,189.1,128.3,189.1z"/>
			<path fill="#1D1D1B" d="M145.1,190c-0.6-0.8-1.3-1.3-2.4-1.3c-1,0-1.9,0.8-1.9,1.8c0,2.7,6.3,1.5,6.3,6.8c0,3.2-2,5.4-5.2,5.4
				c-2.2,0-3.8-1.3-4.9-3.1l2-1.9c0.4,1.2,1.5,2.3,2.8,2.3c1.3,0,2-1.1,2-2.3c0-1.6-1.5-2.1-2.7-2.6c-2-0.8-3.5-1.9-3.5-4.3
				c0-2.6,1.9-4.7,4.6-4.7c1.4,0,3.3,0.7,4.3,1.8L145.1,190z"/>
			<path fill="#1D1D1B" d="M165.4,202.3h-3.7l-3.8-6.4h0v6.4h-3.1v-15.8h4.2c3.1,0,5.3,1.4,5.3,4.7c0,2-1.1,4-3.2,4.4L165.4,202.3z
				 M157.8,193.8h0.4c1.7,0,2.9-0.5,2.9-2.4c0-1.9-1.2-2.3-2.9-2.3h-0.4V193.8z"/>
			<path fill="#1D1D1B" d="M173.4,202.7c-4.8,0-7.8-3.7-7.8-8.3c0-4.7,3.1-8.3,7.8-8.3c4.7,0,7.8,3.6,7.8,8.3
				C181.2,199,178.2,202.7,173.4,202.7z M173.4,189.1c-2.9,0-4.6,2.6-4.6,5.1c0,2.4,1.2,5.4,4.6,5.4s4.6-3,4.6-5.4
				C178,191.7,176.3,189.1,173.4,189.1z"/>
			<path fill="#1D1D1B" d="M194.5,192.5L194.5,192.5l-3.6,10h-1.1l-3.5-10h0l-1.4,9.8h-3.1l2.7-16.2h2.2l3.9,10.4l3.7-10.4h2.2
				l2.4,16.2h-3.1L194.5,192.5z"/>
			<path fill="#1D1D1B" d="M203.4,198.9l-1.3,3.3h-3.2l6.2-16.2h2.4l6,16.2h-3.3l-1.2-3.3H203.4z M206.1,190.7L206.1,190.7l-1.8,5.7
				h3.7L206.1,190.7z M209.1,182.6l-3.2,3.1l-1.5-0.9l2.5-3.5L209.1,182.6z"/>
			<path fill="#1D1D1B" d="M214.4,186.1h2.2l8.3,11h0v-10.6h3.1v16.1h-2.2l-8.3-11h0v10.7h-3.1V186.1z"/>
			<path fill="#1D1D1B" d="M235.4,202.3h-3.1v-13.1h-3.2v-2.7h9.4v2.7h-3.2V202.3z"/>
			<path fill="#1D1D1B" d="M242.8,202.3h-3.1v-15.8h3.1V202.3z"/>
			<path fill="#1D1D1B" d="M255.5,190.7c-0.9-1-2.2-1.7-3.5-1.7c-2.9,0-4.6,2.7-4.6,5.4c0,2.7,1.8,5.3,4.6,5.3
				c1.3,0,2.6-0.7,3.5-1.7v3.7c-1.2,0.5-2.3,0.9-3.6,0.9c-4.4,0-7.7-3.8-7.7-8.2c0-4.5,3.2-8.4,7.8-8.4c1.2,0,2.4,0.3,3.5,0.9V190.7
				z"/>
			<path fill="#1D1D1B" d="M264.6,202.7c-4.8,0-7.8-3.7-7.8-8.3c0-4.7,3.1-8.3,7.8-8.3c4.7,0,7.8,3.6,7.8,8.3
				C272.4,199,269.4,202.7,264.6,202.7z M264.6,189.1c-2.9,0-4.6,2.6-4.6,5.1c0,2.4,1.2,5.4,4.6,5.4c3.4,0,4.6-3,4.6-5.4
				C269.2,191.7,267.5,189.1,264.6,189.1z"/>
			<path fill="#1D1D1B" d="M281.4,190c-0.6-0.8-1.3-1.3-2.4-1.3c-1,0-1.9,0.8-1.9,1.8c0,2.7,6.3,1.5,6.3,6.8c0,3.2-2,5.4-5.2,5.4
				c-2.2,0-3.8-1.3-4.9-3.1l2-1.9c0.4,1.2,1.5,2.3,2.8,2.3c1.3,0,2-1.1,2-2.3c0-1.6-1.5-2.1-2.7-2.6c-2-0.8-3.5-1.9-3.5-4.3
				c0-2.6,1.9-4.7,4.6-4.7c1.4,0,3.3,0.7,4.3,1.8L281.4,190z"/>
		</g>
		<g>
			<path fill="#1D1D1B" d="M49.3,237.7h-3.1v-15.8h4.2c3.3,0,5.5,1.3,5.5,4.9c0,3.3-1.8,5-5,5h-1.5V237.7z M49.3,229.3h0.6
				c1.8,0,2.8-0.4,2.8-2.4c0-2-1.2-2.3-2.9-2.3h-0.5V229.3z"/>
			<path fill="#1D1D1B" d="M58.8,234.4l-1.3,3.3h-3.2l6.2-16.2h2.4l6,16.2h-3.3l-1.2-3.3H58.8z M61.4,226.1L61.4,226.1l-1.8,5.7h3.7
				L61.4,226.1z"/>
			<path fill="#1D1D1B" d="M80.4,237.7h-3.7l-3.8-6.4h0v6.4h-3.1v-15.8h4.2c3.1,0,5.3,1.4,5.3,4.7c0,2-1.1,4-3.2,4.4L80.4,237.7z
				 M72.8,229.2h0.4c1.7,0,2.9-0.5,2.9-2.4c0-1.9-1.2-2.3-2.9-2.3h-0.4V229.2z"/>
			<path fill="#1D1D1B" d="M84.6,234.4l-1.3,3.3h-3.2l6.2-16.2h2.4l6,16.2h-3.3l-1.2-3.3H84.6z M87.3,226.1L87.3,226.1l-1.8,5.7h3.7
				L87.3,226.1z"/>
			<path fill="#1D1D1B" d="M104.7,235h4.4v2.7h-7.4v-15.8h3.1V235z"/>
			<path fill="#1D1D1B" d="M117,238.1c-4.8,0-7.8-3.7-7.8-8.3c0-4.7,3.1-8.3,7.8-8.3c4.7,0,7.8,3.6,7.8,8.3
				C124.8,234.5,121.9,238.1,117,238.1z M117,224.6c-2.9,0-4.6,2.6-4.6,5.1c0,2.4,1.2,5.4,4.6,5.4s4.6-3,4.6-5.4
				C121.7,227.1,119.9,224.6,117,224.6z"/>
			<path fill="#1D1D1B" d="M133.8,225.4c-0.6-0.8-1.3-1.3-2.4-1.3c-1,0-1.9,0.8-1.9,1.8c0,2.7,6.3,1.5,6.3,6.8c0,3.2-2,5.4-5.2,5.4
				c-2.2,0-3.8-1.3-4.9-3.1l2-1.9c0.4,1.2,1.5,2.3,2.8,2.3c1.3,0,2-1.1,2-2.3c0-1.6-1.5-2.1-2.7-2.6c-2-0.8-3.5-1.9-3.5-4.3
				c0-2.6,1.9-4.7,4.6-4.7c1.4,0,3.3,0.7,4.3,1.8L133.8,225.4z"/>
			<path fill="#1D1D1B" d="M153.9,226.1c-0.9-1-2.2-1.7-3.5-1.7c-2.9,0-4.6,2.7-4.6,5.4c0,2.7,1.8,5.3,4.6,5.3
				c1.3,0,2.6-0.7,3.5-1.7v3.7c-1.2,0.5-2.3,0.9-3.6,0.9c-4.4,0-7.7-3.8-7.7-8.2c0-4.5,3.2-8.4,7.8-8.4c1.2,0,2.4,0.3,3.5,0.9V226.1
				z"/>
			<path fill="#1D1D1B" d="M155.9,221.9h3.1v8.8c0,1.9,0.2,4.7,2.8,4.7s2.8-2.7,2.8-4.7v-8.8h3.1v9.4c0,3.9-1.6,6.8-5.9,6.8
				s-5.9-2.9-5.9-6.8V221.9z"/>
			<path fill="#1D1D1B" d="M181.6,227.9L181.6,227.9l-3.6,10h-1.1l-3.5-10h0l-1.4,9.8h-3.1l2.7-16.2h2.2l3.9,10.4l3.7-10.4h2.2
				l2.4,16.2h-3.1L181.6,227.9z"/>
			<path fill="#1D1D1B" d="M190.4,237.7h-3.1v-15.8h4.2c3.3,0,5.5,1.3,5.5,4.9c0,3.3-1.8,5-5,5h-1.5V237.7z M190.4,229.3h0.6
				c1.8,0,2.8-0.4,2.8-2.4c0-2-1.2-2.3-2.9-2.3h-0.5V229.3z"/>
			<path fill="#1D1D1B" d="M201.4,235h4.4v2.7h-7.4v-15.8h3.1V235z"/>
			<path fill="#1D1D1B" d="M209.8,224.6v3.5h4.9v2.7h-4.9v4.3h5.1v2.7h-8.2v-15.8h8.2v2.7H209.8z"/>
			<path fill="#1D1D1B" d="M220.2,234.4l-1.3,3.3h-3.2l6.2-16.2h2.4l6,16.2h-3.3l-1.2-3.3H220.2z M222.8,226.1L222.8,226.1l-1.8,5.7
				h3.7L222.8,226.1z"/>
			<path fill="#1D1D1B" d="M231.1,221.5h2.2l8.3,11h0v-10.6h3.1V238h-2.2l-8.3-11h0v10.7h-3.1V221.5z M233.9,220.3
				c0.1-1.2,0.8-2.9,2.3-2.9c0.5,0,1.1,0.2,1.6,0.4c0.5,0.2,1,0.5,1.4,0.5c0.6,0,0.8-0.4,1-0.9h1.7c-0.2,1.3-1,2.9-2.5,2.9
				c-0.4,0-0.9-0.2-1.4-0.5c-0.5-0.2-1-0.5-1.4-0.5c-0.5,0-0.8,0.4-0.9,0.9H233.9z"/>
			<path fill="#1D1D1B" d="M250,224.6v3.5h4.9v2.7H250v4.3h5.1v2.7H247v-15.8h8.2v2.7H250z"/>
			<path fill="#1D1D1B" d="M267.9,237.7h-3.7l-3.8-6.4h0v6.4h-3.1v-15.8h4.2c3.1,0,5.3,1.4,5.3,4.7c0,2-1.1,4-3.2,4.4L267.9,237.7z
				 M260.3,229.2h0.4c1.7,0,2.9-0.5,2.9-2.4c0-1.9-1.2-2.3-2.9-2.3h-0.4V229.2z"/>
			<path fill="#1D1D1B" d="M275.9,238.1c-4.8,0-7.8-3.7-7.8-8.3c0-4.7,3.1-8.3,7.8-8.3c4.7,0,7.8,3.6,7.8,8.3
				C283.7,234.5,280.7,238.1,275.9,238.1z M275.9,224.6c-2.9,0-4.6,2.6-4.6,5.1c0,2.4,1.2,5.4,4.6,5.4c3.4,0,4.6-3,4.6-5.4
				C280.5,227.1,278.8,224.6,275.9,224.6z"/>
			<path fill="#1D1D1B" d="M292.6,225.4c-0.6-0.8-1.3-1.3-2.4-1.3c-1,0-1.9,0.8-1.9,1.8c0,2.7,6.3,1.5,6.3,6.8c0,3.2-2,5.4-5.2,5.4
				c-2.2,0-3.8-1.3-4.9-3.1l2-1.9c0.4,1.2,1.5,2.3,2.8,2.3c1.3,0,2-1.1,2-2.3c0-1.6-1.5-2.1-2.7-2.6c-2-0.8-3.5-1.9-3.5-4.3
				c0-2.6,1.9-4.7,4.6-4.7c1.4,0,3.3,0.7,4.3,1.8L292.6,225.4z"/>
		</g>
		<g>
			<path fill="#1D1D1B" d="M36.9,272h-3.1v-15.8H38c3.3,0,5.5,1.3,5.5,4.9c0,3.3-1.8,5-5,5h-1.5V272z M36.9,263.5h0.6
				c1.8,0,2.8-0.4,2.8-2.4c0-2-1.2-2.3-2.9-2.3h-0.5V263.5z"/>
			<path fill="#1D1D1B" d="M46.4,268.6l-1.3,3.3h-3.2l6.2-16.2h2.4l6,16.2h-3.3l-1.2-3.3H46.4z M49.1,260.4L49.1,260.4l-1.8,5.7H51
				L49.1,260.4z"/>
			<path fill="#1D1D1B" d="M68,272h-3.7l-3.8-6.4h0v6.4h-3.1v-15.8h4.2c3.1,0,5.3,1.4,5.3,4.8c0,2-1.1,4-3.2,4.4L68,272z
				 M60.4,263.5h0.4c1.7,0,2.9-0.5,2.9-2.4c0-1.9-1.2-2.3-2.9-2.3h-0.4V263.5z"/>
			<path fill="#1D1D1B" d="M72.2,268.6l-1.3,3.3h-3.2l6.2-16.2h2.4l6,16.2h-3.3l-1.2-3.3H72.2z M74.9,260.4L74.9,260.4l-1.8,5.7h3.7
				L74.9,260.4z"/>
			<path fill="#1D1D1B" d="M89.2,256.2h4.4c4.6,0,7.6,3.4,7.6,7.9c0,4.4-3.1,7.9-7.6,7.9h-4.4V256.2z M92.3,269.3h0.5
				c3.8,0,5.3-2.1,5.3-5.2c0-3.4-1.8-5.2-5.3-5.2h-0.5V269.3z"/>
			<path fill="#1D1D1B" d="M105.8,258.9v3.5h4.9v2.7h-4.9v4.3h5.1v2.7h-8.2v-15.8h8.2v2.7H105.8z"/>
			<path fill="#1D1D1B" d="M120.4,259.7c-0.6-0.8-1.3-1.3-2.4-1.3c-1,0-1.9,0.8-1.9,1.8c0,2.7,6.3,1.5,6.3,6.8c0,3.2-2,5.4-5.2,5.4
				c-2.2,0-3.8-1.3-4.9-3.1l2-1.9c0.4,1.2,1.5,2.3,2.8,2.3c1.3,0,2-1.1,2-2.3c0-1.6-1.5-2.1-2.7-2.6c-2-0.8-3.5-1.9-3.5-4.3
				c0-2.6,1.9-4.7,4.6-4.7c1.4,0,3.3,0.7,4.3,1.8L120.4,259.7z"/>
			<path fill="#1D1D1B" d="M127,258.9v3.5h4.9v2.7H127v4.3h5.1v2.7h-8.2v-15.8h8.2v2.7H127z"/>
			<path fill="#1D1D1B" d="M137.4,268.6l-1.3,3.3h-3.2l6.2-16.2h2.4l6,16.2h-3.3l-1.2-3.3H137.4z M140,260.4L140,260.4l-1.8,5.7h3.7
				L140,260.4z"/>
			<path fill="#1D1D1B" d="M159,272h-3.7l-3.8-6.4h0v6.4h-3.1v-15.8h4.2c3.1,0,5.3,1.4,5.3,4.8c0,2-1.1,4-3.2,4.4L159,272z
				 M151.4,263.5h0.4c1.7,0,2.9-0.5,2.9-2.4c0-1.9-1.2-2.3-2.9-2.3h-0.4V263.5z"/>
			<path fill="#1D1D1B" d="M169.1,258.9v3.5h4.5v2.7h-4.5v6.9H166v-15.8h7.8v2.7H169.1z"/>
			<path fill="#1D1D1B" d="M178.8,258.9v3.5h4.9v2.7h-4.9v4.3h5.1v2.7h-8.2v-15.8h8.2v2.7H178.8z"/>
			<path fill="#1D1D1B" d="M189,269.3h4.4v2.7h-7.4v-15.8h3.1V269.3z"/>
			<path fill="#1D1D1B" d="M197.4,272h-3.1v-15.8h3.1V272z"/>
			<path fill="#1D1D1B" d="M210.2,260.4c-0.9-1-2.2-1.7-3.5-1.7c-2.9,0-4.6,2.7-4.6,5.4c0,2.7,1.8,5.3,4.6,5.3
				c1.3,0,2.6-0.7,3.5-1.7v3.7c-1.2,0.5-2.3,0.9-3.6,0.9c-4.4,0-7.7-3.8-7.7-8.2c0-4.5,3.2-8.4,7.8-8.4c1.2,0,2.4,0.3,3.5,0.9V260.4
				z"/>
			<path fill="#1D1D1B" d="M215.3,258.9v3.5h4.9v2.7h-4.9v4.3h5.1v2.7h-8.2v-15.8h8.2v2.7H215.3z"/>
			<path fill="#1D1D1B" d="M229.8,259.7c-0.6-0.8-1.3-1.3-2.4-1.3c-1,0-1.9,0.8-1.9,1.8c0,2.7,6.3,1.5,6.3,6.8c0,3.2-2,5.4-5.2,5.4
				c-2.2,0-3.8-1.3-4.9-3.1l2-1.9c0.4,1.2,1.5,2.3,2.8,2.3c1.3,0,2-1.1,2-2.3c0-1.6-1.5-2.1-2.7-2.6c-2-0.8-3.5-1.9-3.5-4.3
				c0-2.6,1.9-4.7,4.6-4.7c1.4,0,3.3,0.7,4.3,1.8L229.8,259.7z"/>
			<path fill="#1D1D1B" d="M242.5,258.9v3.5h4.5v2.7h-4.5v6.9h-3.1v-15.8h7.8v2.7H242.5z"/>
			<path fill="#1D1D1B" d="M252.2,272h-3.1v-15.8h3.1V272z"/>
			<path fill="#1D1D1B" d="M257.6,258.9v3.5h4.9v2.7h-4.9v4.3h5.1v2.7h-8.2v-15.8h8.2v2.7H257.6z"/>
			<path fill="#1D1D1B" d="M272.1,259.7c-0.6-0.8-1.3-1.3-2.4-1.3c-1,0-1.9,0.8-1.9,1.8c0,2.7,6.3,1.5,6.3,6.8c0,3.2-2,5.4-5.2,5.4
				c-2.2,0-3.8-1.3-4.9-3.1l2-1.9c0.4,1.2,1.5,2.3,2.8,2.3c1.3,0,2-1.1,2-2.3c0-1.6-1.5-2.1-2.7-2.6c-2-0.8-3.5-1.9-3.5-4.3
				c0-2.6,1.9-4.7,4.6-4.7c1.4,0,3.3,0.7,4.3,1.8L272.1,259.7z"/>
			<path fill="#1D1D1B" d="M280.8,272h-3.1v-13.1h-3.2v-2.7h9.4v2.7h-3.2V272z"/>
			<path fill="#1D1D1B" d="M286.7,268.6l-1.3,3.3h-3.2l6.2-16.2h2.4l6,16.2h-3.3l-1.2-3.3H286.7z M289.3,260.4L289.3,260.4l-1.8,5.7
				h3.7L289.3,260.4z"/>
			<path fill="#1D1D1B" d="M305,259.7c-0.6-0.8-1.3-1.3-2.4-1.3c-1,0-1.9,0.8-1.9,1.8c0,2.7,6.3,1.5,6.3,6.8c0,3.2-2,5.4-5.2,5.4
				c-2.2,0-3.8-1.3-4.9-3.1l2-1.9c0.4,1.2,1.5,2.3,2.8,2.3c1.3,0,2-1.1,2-2.3c0-1.6-1.5-2.1-2.7-2.6c-2-0.8-3.5-1.9-3.5-4.3
				c0-2.6,1.9-4.7,4.6-4.7c1.4,0,3.3,0.7,4.3,1.8L305,259.7z"/>
		</g>
		<g>
			<path fill="#1D1D1B" d="M63.3,306.5h-3.1v-15.8h4.2c3.3,0,5.5,1.3,5.5,4.9c0,3.3-1.8,5-5,5h-1.5V306.5z M63.3,298.1h0.6
				c1.8,0,2.8-0.4,2.8-2.4c0-2-1.2-2.3-2.9-2.3h-0.5V298.1z"/>
			<path fill="#1D1D1B" d="M72.8,303.2l-1.3,3.3h-3.2l6.2-16.2h2.4l6,16.2h-3.3l-1.2-3.3H72.8z M75.5,295L75.5,295l-1.8,5.7h3.7
				L75.5,295z"/>
			<path fill="#1D1D1B" d="M94.4,306.5h-3.7l-3.8-6.4h0v6.4h-3.1v-15.8h4.2c3.1,0,5.3,1.4,5.3,4.8c0,2-1.1,4-3.2,4.4L94.4,306.5z
				 M86.8,298h0.4c1.7,0,2.9-0.5,2.9-2.4c0-1.9-1.2-2.3-2.9-2.3h-0.4V298z"/>
			<path fill="#1D1D1B" d="M98.6,303.2l-1.3,3.3h-3.2l6.2-16.2h2.4l6,16.2h-3.3l-1.2-3.3H98.6z M101.3,295L101.3,295l-1.8,5.7h3.7
				L101.3,295z"/>
			<path fill="#1D1D1B" d="M118.7,303.9h4.4v2.7h-7.4v-15.8h3.1V303.9z"/>
			<path fill="#1D1D1B" d="M131.1,307c-4.8,0-7.8-3.7-7.8-8.3c0-4.7,3.1-8.3,7.8-8.3c4.7,0,7.8,3.6,7.8,8.3
				C138.9,303.3,135.9,307,131.1,307z M131.1,293.4c-2.9,0-4.6,2.6-4.6,5.1c0,2.4,1.2,5.4,4.6,5.4c3.4,0,4.6-3,4.6-5.4
				C135.7,296,134,293.4,131.1,293.4z"/>
			<path fill="#1D1D1B" d="M158.5,307.2l-1.1-1.3c-1.1,0.7-2.5,1.1-3.9,1.1c-4.6,0-7.8-3.8-7.8-8.3c0-4.4,3.2-8.3,7.8-8.3
				c4.6,0,7.8,3.9,7.8,8.3c0,2.1-0.6,4.1-1.9,5.7l2.2,2.6L158.5,307.2z M157.1,301.8c0.7-0.9,1-2.2,1-3.3c0-2.6-1.9-5.3-4.6-5.3
				c-3,0-4.6,2.8-4.6,5.5c0,2.6,1.6,5.2,4.6,5.2c0.6,0,1.2-0.3,1.7-0.5l-2.6-3l3.2-0.3L157.1,301.8z"/>
			<path fill="#1D1D1B" d="M162.7,290.8h3.1v8.8c0,1.9,0.2,4.7,2.8,4.7c2.6,0,2.8-2.7,2.8-4.7v-8.8h3.1v9.4c0,3.9-1.6,6.8-5.9,6.8
				c-4.2,0-5.9-2.9-5.9-6.8V290.8z"/>
			<path fill="#1D1D1B" d="M179.7,293.5v3.5h4.9v2.7h-4.9v4.3h5.1v2.7h-8.2v-15.8h8.2v2.7H179.7z"/>
			<path fill="#1D1D1B" d="M204.9,307.2l-1.1-1.3c-1.1,0.7-2.5,1.1-3.9,1.1c-4.6,0-7.8-3.8-7.8-8.3c0-4.4,3.2-8.3,7.8-8.3
				c4.6,0,7.8,3.9,7.8,8.3c0,2.1-0.6,4.1-1.9,5.7l2.2,2.6L204.9,307.2z M203.6,301.8c0.7-0.9,1-2.2,1-3.3c0-2.6-1.9-5.3-4.6-5.3
				c-3,0-4.6,2.8-4.6,5.5c0,2.6,1.6,5.2,4.6,5.2c0.6,0,1.2-0.3,1.7-0.5l-2.6-3l3.2-0.3L203.6,301.8z"/>
			<path fill="#1D1D1B" d="M209.1,290.8h3.1v8.8c0,1.9,0.2,4.7,2.8,4.7s2.8-2.7,2.8-4.7v-8.8h3.1v9.4c0,3.9-1.6,6.8-5.9,6.8
				s-5.9-2.9-5.9-6.8V290.8z"/>
			<path fill="#1D1D1B" d="M226.1,306.5H223v-15.8h3.1V306.5z"/>
			<path fill="#1D1D1B" d="M231.4,293.5v3.5h4.9v2.7h-4.9v4.3h5.1v2.7h-8.2v-15.8h8.2v2.7H231.4z"/>
			<path fill="#1D1D1B" d="M249.2,306.5h-3.7l-3.8-6.4h0v6.4h-3.1v-15.8h4.2c3.1,0,5.3,1.4,5.3,4.8c0,2-1.1,4-3.2,4.4L249.2,306.5z
				 M241.6,298h0.4c1.7,0,2.9-0.5,2.9-2.4c0-1.9-1.2-2.3-2.9-2.3h-0.4V298z"/>
			<path fill="#1D1D1B" d="M253.5,303.2l-1.3,3.3h-3.2l6.2-16.2h2.4l6,16.2h-3.3l-1.2-3.3H253.5z M256.1,295L256.1,295l-1.8,5.7h3.7
				L256.1,295z"/>
			<path fill="#1D1D1B" d="M271.8,294.2c-0.6-0.8-1.3-1.3-2.4-1.3c-1,0-1.9,0.8-1.9,1.8c0,2.7,6.3,1.5,6.3,6.8c0,3.2-2,5.4-5.2,5.4
				c-2.2,0-3.8-1.3-4.9-3.1l2-1.9c0.4,1.2,1.5,2.3,2.8,2.3c1.3,0,2-1.1,2-2.3c0-1.6-1.5-2.1-2.7-2.6c-2-0.8-3.5-1.9-3.5-4.3
				c0-2.6,1.9-4.7,4.6-4.7c1.4,0,3.3,0.7,4.3,1.8L271.8,294.2z"/>
			<path fill="#1D1D1B" d="M279.5,305.1c0,1-0.8,1.9-1.9,1.9s-1.9-0.9-1.9-1.9s0.8-1.8,1.9-1.8S279.5,304.1,279.5,305.1z
				 M276.2,290.8h3V302h-3V290.8z"/>
		</g>
		<g>
			<path fill="#1D1D1B" d="M127.4,50.1h10.5c5.3,0,9.2,2.7,9.2,8.4c0,4.7-2.9,7.6-7.5,7.6h-4.2v6.9h-8V50.1z M135.4,60.3h0.8
				c1.5,0,3-0.2,3-2.1c0-1.8-1.7-1.9-3.1-1.9h-0.8V60.3z"/>
			<path fill="#1D1D1B" d="M153.7,72.9h-8.8l7.9-22.8h9.2l8.1,22.8h-8.8l-0.8-2.8h-6.3L153.7,72.9z M159.2,64.6l-1-4
				c-0.2-1-0.4-2-0.5-2.9h-0.3l-1.5,7H159.2z"/>
			<path fill="#1D1D1B" d="M188.8,59.3c-1.3-1.2-3-2.3-4.9-2.3c-2.5,0-4.5,2-4.5,4.4c0,2.5,2.1,4.4,4.6,4.4c1.9,0,3.4-0.8,4.7-2.1
				l-0.2,8.5c-1.3,0.6-4.4,0.9-5.9,0.9c-6.5,0-11.6-5-11.6-11.5c0-6.6,5.2-12,11.9-12c1.9,0,3.8,0.3,5.6,0.9L188.8,59.3z"/>
			<path fill="#1D1D1B" d="M191.7,50.1h8.1l-0.2,9.9h0.2c0.2-0.9,0.7-1.8,1.1-2.6l4-7.3h9l-7.1,11.1l7.9,11.7h-9.6l-3.9-6.9
				c-0.5-0.9-1.2-1.7-1.4-2.7h-0.2l0.2,9.5h-8.1V50.1z"/>
			<path fill="#1D1D1B" d="M102.8,86.3h10c5.1,0,9.5,2.2,9.5,7.9c0,3.4-1.3,4.9-4.4,5.9v0.2c0.4,0.3,0.9,0.7,1.4,1.4l5,7.4h-9.5
				l-3.6-7.3h-0.2v7.3h-8.1V86.3z M110.9,96.4h0.6c1.4,0,2.7-0.2,2.7-1.9c0-1.8-1.2-2-2.7-2h-0.6V96.4z"/>
			<path fill="#1D1D1B" d="M125.5,86.3h15.3v6.2h-7v2.2h6.4v5.9h-6.4v2.2h7.2v6.2h-15.6V86.3z"/>
			<path fill="#1D1D1B" d="M168.6,95.7c-0.1,3.7-0.1,6.8-2.8,9.7c-2.4,2.6-6.1,4-9.7,4c-7,0-12.6-4.3-12.6-11.6
				c0-7.4,5.5-11.9,12.6-11.9c4,0,9.4,2,11.2,5.9l-7.7,2.8c-0.6-1.1-1.8-1.8-3.1-1.8c-3,0-4.6,2.5-4.6,5.3c0,2.5,1.6,4.9,4.3,4.9
				c1.3,0,3-0.6,3.4-2h-3.7v-5.4H168.6z"/>
			<path fill="#1D1D1B" d="M178.1,109.1h-8.8l7.9-22.8h9.2l8.1,22.8h-8.8l-0.8-2.8h-6.3L178.1,109.1z M183.6,100.9l-1-4
				c-0.2-1-0.4-2-0.5-2.9h-0.3l-1.5,7H183.6z"/>
			<path fill="#1D1D1B" d="M196.3,86.3h8.3v15.5h7v7.3h-15.2V86.3z"/>
			<path fill="#1D1D1B" d="M238.2,97.8c0,7.3-5.7,11.7-12.6,11.7S213,105.1,213,97.8c0-7.2,5.7-11.8,12.6-11.8
				S238.2,90.6,238.2,97.8z M221.3,97.9c0,2.6,1.8,4.4,4.3,4.4c2.5,0,4.3-1.8,4.3-4.4c0-2.4-1.6-4.4-4.3-4.4S221.3,95.5,221.3,97.9z
				"/>
			<path fill="#1D1D1B" d="M25.7,122.6h10.5c5.3,0,9.2,2.7,9.2,8.4c0,4.7-2.9,7.6-7.5,7.6h-4.2v6.9h-8V122.6z M33.7,132.8h0.8
				c1.5,0,3-0.2,3-2.1c0-1.8-1.7-1.9-3.1-1.9h-0.8V132.8z"/>
			<path fill="#1D1D1B" d="M47.6,122.6h15.3v6.2h-7v2.2h6.4v5.9h-6.4v2.2h7.2v6.2H47.6V122.6z"/>
			<path fill="#1D1D1B" d="M66.6,122.6h10c5.1,0,9.5,2.2,9.5,7.9c0,3.4-1.3,4.9-4.4,5.9v0.2c0.4,0.3,0.9,0.7,1.4,1.4l5,7.4h-9.5
				l-3.6-7.3h-0.2v7.3h-8.1V122.6z M74.7,132.7h0.6c1.4,0,2.7-0.2,2.7-1.9c0-1.8-1.2-2-2.7-2h-0.6V132.7z"/>
			<path fill="#1D1D1B" d="M90.8,137.2l0.4,0.3c1.5,1.1,3.3,2.1,5.2,2.1c0.8,0,2.1-0.3,2.1-1.4s-1.1-1.1-1.8-1.3l-1.7-0.3
				c-3.2-0.6-6-2.5-6-6c0-5.4,4.9-8.4,9.9-8.4c2.6,0,5,0.6,7.2,2l-2.2,5.8c-1.4-1-3-1.7-4.8-1.7c-0.7,0-1.8,0.3-1.8,1.2
				c0,0.8,1,1,1.7,1.1l1.9,0.4c3.5,0.8,6,2.7,6,6.5c0,5.4-5,8.1-9.9,8.1c-2.9,0-6.2-0.8-8.8-2.1L90.8,137.2z"/>
			<path fill="#1D1D1B" d="M133.9,134.1c0,7.3-5.7,11.7-12.6,11.7c-7,0-12.6-4.4-12.6-11.7c0-7.2,5.7-11.8,12.6-11.8
				S133.9,126.9,133.9,134.1z M117,134.2c0,2.6,1.8,4.4,4.3,4.4c2.5,0,4.3-1.8,4.3-4.4c0-2.4-1.6-4.4-4.3-4.4
				C118.6,129.7,117,131.8,117,134.2z"/>
			<path fill="#1D1D1B" d="M136.7,122.6h7.9l7.4,12.6h0.2c-0.3-1.9-0.7-3.9-0.7-5.8v-6.8h7.9v22.8h-7.9l-7.3-12h-0.2
				c0.3,1.6,0.5,3.1,0.5,4.6v7.4h-7.9V122.6z"/>
			<path fill="#1D1D1B" d="M169.9,145.4h-8.8l7.9-22.8h9.2l8.1,22.8h-8.8l-0.8-2.8h-6.3L169.9,145.4z M175.3,137.1l-1-4
				c-0.2-1-0.4-2-0.5-2.9h-0.3l-1.5,7H175.3z"/>
			<path fill="#1D1D1B" d="M188,122.6h8.3v15.5h7v7.3H188V122.6z"/>
			<path fill="#1D1D1B" d="M205.6,122.6h8.3v22.8h-8.3V122.6z"/>
			<path fill="#1D1D1B" d="M239.1,122.6l-9.9,15.7l0.1,0.1c0.6-0.1,1.3-0.1,1.9-0.1h6.9v7h-22.2l8.2-13.3c0.6-1,1.3-1.8,2-2.8
				l-0.1-0.1c-0.6,0.2-1.3,0.3-2,0.3h-6.2v-6.9H239.1z"/>
			<path fill="#1D1D1B" d="M247.7,145.4H239l7.9-22.8h9.2l8.1,22.8h-8.8l-0.8-2.8h-6.3L247.7,145.4z M253.2,137.1l-1-4
				c-0.2-1-0.4-2-0.5-2.9h-0.3l-1.5,7H253.2z"/>
			<path fill="#1D1D1B" d="M265.9,122.6h8.4c7.6,0,13.5,3.4,13.5,11.7c0,6.8-4.8,11.1-11.5,11.1h-10.5V122.6z M274.2,138.6h0.5
				c2.8,0,4.9-1.3,4.9-4.3c0-3.2-1.8-4.6-4.9-4.6h-0.5V138.6z"/>
			<path fill="#1D1D1B" d="M315.3,134.1c0,7.3-5.7,11.7-12.6,11.7c-7,0-12.6-4.4-12.6-11.7c0-7.2,5.7-11.8,12.6-11.8
				C309.6,122.3,315.3,126.9,315.3,134.1z M298.4,134.2c0,2.6,1.8,4.4,4.3,4.4c2.5,0,4.3-1.8,4.3-4.4c0-2.4-1.6-4.4-4.3-4.4
				S298.4,131.8,298.4,134.2z"/>
		</g>
		<g>
			<path fill="#1D1D1B" d="M72.8,382.2v-30.9h4.6c1.1,0,13.9-1.6,13.9,15.7c0,8.8-3.4,15.2-13,15.2H72.8z M85.2,367
				c0-3.9-1.2-10.2-6.3-10.2v19.9C83.9,377,85.2,370.8,85.2,367z"/>
			<path fill="#1D1D1B" d="M106.9,351.3v5.7h-6.2v6.7h5.5v5.7h-5.5v7h6.3v5.7H94.6v-30.9H106.9z"/>
			<path fill="#1D1D1B" d="M123.3,358.3c-1.2-1.1-2.7-2-4.4-2c-1.9,0-3.1,1.1-3.1,3c0,5.1,9.3,5.4,9.3,13.7c0,5.5-3.2,9.6-8.9,9.6
				c-1.7,0-3.9-0.5-5.2-1.6v-5.8c1.4,1,2.8,1.6,4.6,1.6c2,0,3.5-1.3,3.5-3.4c0-2.4-1.9-3.3-3.6-4.5c-3.5-2.4-5.7-4.7-5.7-9.2
				c0-4.9,2.8-9.1,8.1-9.1c2,0,3.7,0.5,5.4,1.5V358.3z"/>
			<path fill="#1D1D1B" d="M128.7,382.2v-30.9h4.6c1.1,0,13.9-1.6,13.9,15.7c0,8.8-3.4,15.2-13,15.2H128.7z M141.1,367
				c0-3.9-1.2-10.2-6.3-10.2v19.9C139.7,377,141.1,370.8,141.1,367z"/>
			<path fill="#1D1D1B" d="M162.7,351.3v5.7h-6.2v6.7h5.5v5.7h-5.5v7h6.3v5.7h-12.4v-30.9H162.7z"/>
			<path fill="#1D1D1B" d="M176.5,362.1l-0.1-1.7c0-5.7,1.6-9.6,8.1-9.6c5.1,0,8.3,2.6,8.3,7.9c0,3.2-1.1,5.7-2.5,8.4l-5.2,9.8h7.2
				v5.3H176l7-12.8c1.6-3,4-7.1,4-10.5c0-1.6-0.5-3.8-2.5-3.8c-2.3,0-2.5,3.3-2.5,5l0.1,2H176.5z"/>
			<path fill="#1D1D1B" d="M213.2,366.8c0,5.5-1.3,15.9-8.7,15.9c-7.4,0-8.7-10.5-8.7-15.9c0-5.5,1.3-15.9,8.7-15.9
				C211.9,350.8,213.2,361.3,213.2,366.8z M201.7,366.8c0,2-0.3,10.4,2.7,10.4c3,0,2.7-8.4,2.7-10.4c0-2,0.3-10.4-2.7-10.4
				C201.5,356.4,201.7,364.8,201.7,366.8z"/>
			<path fill="#1D1D1B" d="M233.3,366.8c0,5.5-1.3,15.9-8.7,15.9c-7.4,0-8.7-10.5-8.7-15.9c0-5.5,1.3-15.9,8.7-15.9
				C232,350.8,233.3,361.3,233.3,366.8z M221.8,366.8c0,2-0.3,10.4,2.7,10.4c3,0,2.7-8.4,2.7-10.4c0-2,0.3-10.4-2.7-10.4
				C221.5,356.4,221.8,364.8,221.8,366.8z"/>
			<path fill="#1D1D1B" d="M253.1,357.4c-0.7-0.7-2.1-1.4-4.3-1.4c-2.8,0-4.3,1.6-4.7,5.4h7.9l-1.2,4.1h-7.1v1.2v1.4h6.3l-1.2,4.1
				h-4.6c0.4,3.9,2,5.5,4.7,5.5c2.1,0,3.5-0.6,4.3-1.3v5.3c-0.7,0.5-2.5,1.1-5.3,1.1c-5.2,0-8.4-3.1-9.4-10.5h-3.1l1.2-4.1h1.5
				c0-0.4,0-0.9,0-1.4c0-0.4,0-0.8,0-1.2h-2.7l1.2-4.1h1.8c0.9-6.9,4-10.5,9.5-10.5c2.6,0,4.6,0.7,5.3,1.2V357.4z"/>
		</g>
	</g>
</g>
</svg>
