<?xml version="1.0" encoding="utf-8"?>
<!-- Generator: Adobe Illustrator 18.1.0, SVG Export Plug-In . SVG Version: 6.00 Build 0)  -->
<svg version="1.1" id="Layer_1" xmlns="http://www.w3.org/2000/svg" xmlns:xlink="http://www.w3.org/1999/xlink" x="0px" y="0px"
	 viewBox="0 0 340.2 463.3" enable-background="new 0 0 340.2 463.3" xml:space="preserve">
<g>
	<rect fill="#E7DED5" width="340.2" height="463.3"/>
	<g>
		<g>
			<path d="M133.8,69.5h10.5c5.3,0,9.2,2.7,9.2,8.4c0,4.7-2.9,7.6-7.5,7.6h-4.2v6.9h-8V69.5z M141.8,79.7h0.8c1.5,0,3-0.2,3-2.1
				c0-1.8-1.7-1.9-3.1-1.9h-0.8V79.7z"/>
			<path d="M160.1,92.3h-8.8l7.9-22.8h9.2l8.1,22.8h-8.8l-0.8-2.8h-6.3L160.1,92.3z M165.6,84.1l-1-4c-0.2-1-0.4-2-0.5-2.9h-0.3
				l-1.5,7H165.6z"/>
			<path d="M195.2,78.8c-1.3-1.2-3-2.3-4.9-2.3c-2.5,0-4.5,2-4.5,4.4c0,2.5,2.1,4.4,4.6,4.4c1.9,0,3.4-0.8,4.7-2.1l-0.2,8.5
				c-1.3,0.6-4.4,0.9-5.9,0.9c-6.5,0-11.6-5-11.6-11.5c0-6.6,5.2-12,11.9-12c1.9,0,3.8,0.3,5.6,0.9L195.2,78.8z"/>
			<path d="M198.2,69.5h8.1l-0.2,9.9h0.2c0.2-0.9,0.7-1.8,1.1-2.6l4-7.3h9l-7.1,11.1l7.9,11.7h-9.6l-3.9-6.9
				c-0.5-0.9-1.2-1.7-1.4-2.7h-0.2l0.2,9.5h-8.1V69.5z"/>
			<path d="M108,105.8h15.3v6.5h-6.9v2.4h6.1v5.9h-6.1v8H108V105.8z"/>
			<path d="M131.1,128.6h-8.8l7.9-22.8h9.2l8.1,22.8h-8.8l-0.8-2.8h-6.3L131.1,128.6z M136.6,120.3l-1-4c-0.2-1-0.4-2-0.5-2.9h-0.3
				l-1.5,7H136.6z"/>
			<path d="M152,105.8h8.5l3.1,12h0.2c0.2-1,0.3-2.1,0.6-3l2.6-8.9h8.4l3.7,22.8h-8l-1.1-12.5H170c-0.2,0.8-0.3,1.5-0.5,2.3
				l-3.3,10.2h-4.8l-3-9.6c-0.2-1-0.5-1.9-0.5-2.8h-0.3c-0.1,0.9-0.1,1.8-0.2,2.8l-1,9.7h-8L152,105.8z"/>
			<path d="M182.1,105.8h8.3v22.8h-8.3V105.8z"/>
			<path d="M194.2,105.8h8.3v15.5h7v7.3h-15.2V105.8z"/>
			<path d="M211.8,105.8h8.3v22.8h-8.3V105.8z"/>
			<path d="M230.6,128.6h-8.8l7.9-22.8h9.2l8.1,22.8h-8.8l-0.8-2.8h-6.3L230.6,128.6z M236.1,120.3l-1-4c-0.2-1-0.4-2-0.5-2.9h-0.3
				l-1.5,7H236.1z"/>
		</g>
		<g>
			<path d="M51.4,222.5v-25.4h4.9c2,0,3.6,0.1,5.3,1.4c1.7,1.3,2.6,3.6,2.6,5.7c0,2.3-0.8,4-2.7,5.3c2.1,1,3.1,3.7,3.1,5.9
				c0,5-3.7,7.2-8.3,7.2H51.4z M56.5,201.3v6.2c1.9,0,3-1.3,3-3.2C59.5,202.4,58.4,201.2,56.5,201.3z M56.5,211.4v6.9
				c2,0.1,3.2-1.4,3.2-3.5C59.7,212.8,58.5,211.4,56.5,211.4z"/>
			<path d="M77.3,197.1l6.1,25.4H78l-0.9-4.3H72l-0.9,4.3h-5l5.9-25.4H77.3z M78.6,191.1l-4.4,4.7l-2.3-1.3l3.2-4.9L78.6,191.1z
				 M75.1,207.5l-0.6-3.8h-0.1l-0.5,3.8l-1.1,6.8h3.5L75.1,207.5z"/>
			<path d="M95.9,202.8c-1-0.9-2.3-1.6-3.6-1.6c-1.6,0-2.5,0.9-2.5,2.5c0,4.2,7.7,4.4,7.7,11.3c0,4.5-2.6,7.9-7.3,7.9
				c-1.4,0-3.2-0.4-4.3-1.3v-4.8c1.2,0.8,2.3,1.3,3.8,1.3c1.6,0,2.9-1.1,2.9-2.8c0-2-1.6-2.7-3-3.7c-2.9-2-4.7-3.8-4.7-7.6
				c0-4,2.3-7.5,6.6-7.5c1.6,0,3.1,0.4,4.5,1.2V202.8z"/>
			<path d="M105.3,197.1v25.4h-5v-25.4H105.3z"/>
			<path d="M121.6,201.9c-0.6-0.2-1.2-0.3-1.9-0.3c-4.4,0-6.3,4-6.3,7.9c0,3.8,1.9,8.4,6.3,8.4c0.6,0,1.3-0.2,1.9-0.4v4.8
				c-0.7,0.3-1.5,0.4-2.3,0.4c-7.3,0-11.3-6.5-11.3-13.2c0-6.3,4.2-12.8,11-12.8c0.9,0,1.7,0.2,2.6,0.5V201.9z"/>
			<path d="M141.1,209.8c0,9.5-4.5,13.1-8.9,13.1c-4.5,0-8.9-3.6-8.9-13.1s4.5-13.1,8.9-13.1C136.6,196.7,141.1,200.3,141.1,209.8z
				 M132.1,218.3c3.3,0,3.6-6.4,3.6-8.5c0-2.3-0.2-8.5-3.6-8.5c-3.3,0-3.6,6.2-3.6,8.5C128.6,211.8,128.8,218.3,132.1,218.3z"/>
		</g>
		<g>
			<path d="M64.1,310.8c-0.6-0.2-1.2-0.3-1.9-0.3c-4.4,0-6.3,4-6.3,7.9c0,3.8,1.9,8.4,6.3,8.4c0.6,0,1.3-0.2,1.9-0.4v4.8
				c-0.7,0.3-1.5,0.4-2.3,0.4c-7.3,0-11.3-6.5-11.3-13.2c0-6.3,4.2-12.8,11-12.8c0.9,0,1.7,0.2,2.6,0.5V310.8z"/>
			<path d="M83.7,318.7c0,9.5-4.5,13.1-8.9,13.1c-4.5,0-8.9-3.6-8.9-13.1s4.5-13.1,8.9-13.1C79.2,305.6,83.7,309.2,83.7,318.7z
				 M74.7,327.2c3.3,0,3.6-6.4,3.6-8.5c0-2.3-0.2-8.5-3.6-8.5c-3.3,0-3.6,6.2-3.6,8.5C71.2,320.7,71.4,327.2,74.7,327.2z"/>
			<path d="M94.2,306l2.5,15h0.1l2-15h6.7l2.7,25.4H103l-1.2-18.3h-0.1l-0.8,6.3l-2.2,12h-3.9l-2.5-12.2l-0.8-5.7v-0.5h-0.1
				l-0.7,18.3h-5.4l2.2-25.4H94.2z"/>
			<path d="M110.7,331.4V306h5.2c1.1,0,8.6-0.7,8.6,7.5c0,4.8-3.1,7.5-7.7,7.5l-1.1-0.1v10.5H110.7z M115.7,316.9
				c2.4,0.1,3.8-0.8,3.8-3.4c0-1.8-0.7-3.3-2.9-3.3h-0.9V316.9z"/>
			<path d="M132.1,306v20.7h5.3v4.7h-10.3V306H132.1z"/>
			<path d="M149.8,306v4.7h-5.1v5.5h4.5v4.7h-4.5v5.7h5.2v4.7h-10.2V306H149.8z"/>
			<path d="M164.6,306v4.7h-4v20.7h-5v-20.7h-3.9V306H164.6z"/>
			<path d="M183.9,318.7c0,9.5-4.5,13.1-8.9,13.1c-4.5,0-8.9-3.6-8.9-13.1s4.5-13.1,8.9-13.1C179.4,305.6,183.9,309.2,183.9,318.7z
				 M174.9,327.2c3.3,0,3.6-6.4,3.6-8.5c0-2.3-0.2-8.5-3.6-8.5c-3.3,0-3.6,6.2-3.6,8.5C171.3,320.7,171.6,327.2,174.9,327.2z"/>
		</g>
		<circle cx="233.8" cy="318" r="36.6"/>
		<g>
			<path fill="#FFFFFF" d="M218.1,324.6v1.7h-10.9l7.9-9.3c0.7-0.8,1.1-1.7,1.1-2.8c0-1.9-1.5-3.3-3.4-3.3c-2,0-3.4,1.5-3.4,3.5
				h-1.9c0.1-3,2.2-5.2,5.2-5.2c2.8,0,5.3,2.1,5.3,5c0,1.4-0.4,2.6-1.3,3.6l-5.8,6.9H218.1z"/>
			<path fill="#FFFFFF" d="M232.9,317.9c0,4.2-2.2,8.7-6,8.7c-3.8,0-6-4.5-6-8.7c0-3.5,1.8-8.7,6-8.7S232.9,314.4,232.9,317.9z
				 M222.7,318c0,2.4,1.1,6.9,4.2,6.9s4.1-4.5,4.2-6.9c0-2.4-1-7.1-4.2-7.1S222.7,315.6,222.7,318z"/>
			<path fill="#FFFFFF" d="M246.7,317.9c0,4.2-2.2,8.7-6,8.7s-6-4.5-6-8.7c0-3.5,1.8-8.7,6-8.7S246.7,314.4,246.7,317.9z M236.5,318
				c0,2.4,1.1,6.9,4.2,6.9s4.1-4.5,4.2-6.9c0-2.4-1-7.1-4.2-7.1S236.5,315.6,236.5,318z"/>
			<path fill="#FFFFFF" d="M260.3,312.2c-0.7-0.7-2-1.3-3.8-1.3c-2.9,0-4.3,2-4.6,4.7h7.3l-0.5,1.4h-7c0,0.2,0,0.6,0,0.9
				c0,0.4,0,0.7,0,0.9h6.3l-0.5,1.4h-5.6c0.4,3,2,4.7,4.6,4.7c1.7,0,2.9-0.6,3.8-1.3v1.9c-0.6,0.5-2,1.1-4,1.1c-3.4,0-5.7-2-6.2-6.4
				h-1.8l0.5-1.4h1.1c0-0.2,0-0.6,0-0.9c0-0.3,0-0.6,0-0.9h-1.6l0.5-1.4h1.3c0.5-3.6,2.3-6.3,6.3-6.3c1.9,0,3.3,0.6,4,1.1V312.2z"/>
		</g>
		<g>
			<g>
				<path fill="#FFFFFF" d="M273.6,318c-0.3,16.7-10.6,32-26.5,37.6c-15.7,5.5-33.5,0.6-44.1-12.3c-10.6-12.8-11.9-31.5-3.4-45.8
					c8.5-14.2,25.5-21.8,41.7-18.7C260.1,282.6,273.3,299.1,273.6,318c0.1,3.1,4.9,3.1,4.8,0c-0.3-18.7-11.8-35.5-29.4-42
					c-17.6-6.5-38-0.8-49.9,13.8c-11.7,14.4-13.3,35.2-3.7,51.1c9.7,16.1,28.8,24.5,47.2,20.9c20.9-4.1,35.5-22.8,35.9-43.8
					C278.5,314.9,273.7,314.9,273.6,318z"/>
			</g>
		</g>
		<circle cx="198.9" cy="210" r="36.6"/>
		<g>
			<path fill="#FFFFFF" d="M174.9,203.2l1-1.7h3.7v16.9h-1.9v-15.1H174.9z"/>
			<path fill="#FFFFFF" d="M194.6,202.2l-3.9,5.2l0,0c0.2-0.1,0.5-0.1,0.7-0.2c0.2,0,0.5-0.1,0.8-0.1c3.1,0,5.5,2.5,5.5,5.6
				c0,3.2-2.6,5.8-5.8,5.8c-3.2,0-5.8-2.6-5.8-5.8c0-1.5,0.7-2.9,1.5-4l5.6-7.6L194.6,202.2z M195.9,212.9c0-2.2-1.8-3.9-3.9-3.9
				c-2.2,0-3.9,1.7-3.9,3.9c0,2.2,1.7,4,3.9,4C194.1,216.8,195.9,215,195.9,212.9z"/>
			<path fill="#FFFFFF" d="M211.8,209.9c0,4.2-2.2,8.7-6,8.7c-3.8,0-6-4.5-6-8.7c0-3.5,1.8-8.7,6-8.7
				C210.1,201.1,211.8,206.4,211.8,209.9z M201.6,210c0,2.4,1.1,6.9,4.2,6.9c3.1,0,4.1-4.5,4.2-6.9c0-2.4-1-7.1-4.2-7.1
				C202.6,202.9,201.6,207.6,201.6,210z"/>
			<path fill="#FFFFFF" d="M225.4,204.2c-0.7-0.7-2-1.3-3.8-1.3c-2.9,0-4.3,2-4.6,4.7h7.3l-0.5,1.4h-7c0,0.2,0,0.6,0,0.9
				c0,0.4,0,0.7,0,0.9h6.3l-0.5,1.4H217c0.4,3,2,4.7,4.6,4.7c1.7,0,2.9-0.6,3.8-1.3v1.9c-0.6,0.5-2,1.1-4,1.1c-3.4,0-5.7-2-6.2-6.4
				h-1.8l0.5-1.4h1.1c0-0.2,0-0.6,0-0.9c0-0.3,0-0.6,0-0.9h-1.6l0.5-1.4h1.3c0.5-3.6,2.3-6.3,6.3-6.3c1.9,0,3.3,0.6,4,1.1V204.2z"/>
		</g>
		<g>
			<g>
				<path fill="#FFFFFF" d="M238.7,210c-0.3,16.7-10.6,32-26.5,37.6c-15.7,5.5-33.5,0.6-44.1-12.3c-10.6-12.8-11.9-31.5-3.4-45.8
					c8.5-14.2,25.5-21.8,41.7-18.7C225.2,174.6,238.4,191.1,238.7,210c0.1,3.1,4.9,3.1,4.8,0c-0.3-18.7-11.8-35.5-29.4-42
					c-17.6-6.5-38-0.8-49.9,13.8c-11.7,14.4-13.3,35.2-3.7,51.1c9.7,16.1,28.8,24.5,47.2,20.9c20.9-4.1,35.5-22.8,35.9-43.8
					C243.6,206.9,238.8,206.9,238.7,210z"/>
			</g>
		</g>
		<g>
			<g>
				<path fill="none" stroke="#FFFFFF" stroke-width="1.8639" stroke-miterlimit="10" d="M118.3,243.4c0,0,21.3,20.1,39.4,18.2"/>
				<g>
					<polygon fill="#FFFFFF" points="169.6,256.1 155.4,270.2 156.6,261.5 149.6,256.2 					"/>
				</g>
			</g>
		</g>
		<g>
			<g>
				<path fill="none" stroke="#FFFFFF" stroke-width="1.8639" stroke-miterlimit="10" d="M161.3,351.8c0,0,21.3,20.1,39.4,18.2"/>
				<g>
					<polygon fill="#FFFFFF" points="212.6,364.4 198.4,378.6 199.6,369.9 192.6,364.6 					"/>
				</g>
			</g>
		</g>
	</g>
</g>
</svg>
